<svg width="3057.396" height="1100.536" viewBox="0 0 808.936 291.184" xmlns="http://www.w3.org/2000/svg"><path d="M808.936.232L.186 0 0 291.184l36.768-12.553 36.734 12.553 36.761-12.553 36.748 12.553 36.748-12.553 36.742 12.553 36.735-12.553 36.716 12.553 36.736-12.553 36.741 12.553 36.742-12.553 36.742 12.553 36.742-12.553 36.73 12.553 36.74-12.553 36.73 12.553 36.729-12.553 36.722 12.553 36.729-12.553 36.717 12.553 36.729-12.553 37.366 12.553z" fill="#f2f09e"/><path d="M808.936.232L.186 0 0 284.201l36.768-12.552L73.502 284.2l36.761-12.552 36.748 12.552 36.748-12.552 36.742 12.552 36.735-12.552 36.716 12.552 36.736-12.552L367.43 284.2l36.742-12.552 36.742 12.552 36.742-12.552 36.73 12.552 36.74-12.552 36.73 12.552 36.729-12.552 36.722 12.552 36.729-12.552 36.717 12.552 36.729-12.552 37.366 12.23z" fill="#f5e02c"/></svg>