<svg width="3327.27" height="668.723" viewBox="0 0 880.34 176.933" xmlns="http://www.w3.org/2000/svg"><defs><clipPath id="a"><path transform="matrix(1 0 0 -1 0 3467.57)" d="M32.999 3434.554v-489.78l78.531 26.792 104.312-35.583 104.223 35.583 104.129-35.583 104.204 35.583 104.169-35.583 104.167 35.583 104.149-35.583 104.132 35.583 104.077-35.583 104.134 35.583 104.148-35.583 104.15 35.583 104.149-35.583 104.153 35.583 104.112-35.583 104.149 35.583 104.114-35.583 104.114 35.583 104.094-35.583 104.114 35.583 104.08-35.583 104.114 35.583 104.094-35.583 77.166 26.391.202 472.18z"/></clipPath></defs><path d="M881.627-.68L-.816-.95l-.545 178.703 35.71-14.422 36.8 12.553 36.767-12.553 36.735 12.553 36.76-12.553 36.749 12.553 36.748-12.553 36.741 12.553 36.736-12.553 36.716 12.553 36.736-12.553 36.74 12.553 36.743-12.553 36.741 12.553 36.743-12.553 36.729 12.553 36.74-12.553 36.73 12.553 36.729-12.553 36.723 12.553 36.728-12.553 36.717 12.553 36.73-12.553 39.887 14.554z" fill="#2b0604"/><g clip-path="url(#a)" transform="matrix(.35278 0 0 .35278 -4.996 -11.648)"><path d="M899.94 579.354c-2.987 0-6.304.262-9.966.648l-21.572 2.272c-7.599.797-11.7 5.238-11.11 13.206l2.242 30.263c.512 6.924 4.521 10.799 11.005 10.799.605 0 1.23-.034 1.877-.102l21.571-2.272c19.181-2.022 28.596-5.445 26.765-30.13-1.48-19.972-8.158-24.684-20.813-24.684m0 7c6.187 0 8.267 1.332 9.484 2.634 2.303 2.46 3.766 7.699 4.348 15.568 1.032 13.913-2.215 16.924-3.282 17.913-2.948 2.735-9.023 3.872-17.236 4.738l-21.57 2.272c-.398.042-.783.063-1.144.063-2.099 0-3.728-.318-4.024-4.316l-2.243-30.263c-.298-4.016.793-5.3 4.862-5.727l21.574-2.273c4-.421 6.846-.61 9.231-.61" fill="#4e3120"/><path stroke-width="7" stroke-linecap="round" stroke-linejoin="round" fill="none" stroke="#4e3120" d="M1929.708 496.161l-8.551.927-3.568 7.826-216.51 474.931c-16.079 35.16-35.901 53.557-60.59 56.241a76.688 76.688 0 01-8.227.465c-17.797 0-42.139-6.288-48.078-61.025L1545.9 686.757c-6.005-55.41-14.958-91.786-27.363-111.2-8.517-13.341-25.431-29.245-57.641-29.246-3.845 0-7.889.227-12.023.676-28.065 3.046-53.795 20.004-76.472 50.401-22.432 30.061-32.195 60.186-29.015 89.542 2.727 25.135 13.111 44.786 30.86 58.405 14.53 11.157 32.154 16.813 52.388 16.813 4.138 0 8.451-.24 12.808-.713a298.805 298.805 0 0016.181-2.2c5.502-.865 8.822-1.382 10.006-1.512 3.436-.372 6.708-.561 9.725-.561 23.022 0 28.827 10.006 30.457 25.032.962 8.884.061 22.475-18.832 37.877-15.881 12.958-37.514 21.003-64.296 23.907-6.68.725-13.288 1.091-19.646 1.091-35.013 0-64.664-10.653-90.655-32.572-30.938-26.077-48.376-60.885-53.312-106.412-6.008-55.433 10.976-106.373 51.928-155.733 41.069-49.515 89.051-76.621 146.691-82.867 8.081-.876 15.989-1.321 23.505-1.321 43.042 0 76.232 13.984 101.437 42.723 10.703 12.265 19.353 30.316 25.713 53.648 6.761 24.834 13.036 63.669 18.648 115.431l18.495 170.575 5.984 55.192 22.813-50.611 170.402-378.067 8.76-19.696c4.562-10.257 9.78-17.534 15.084-21.047 3.991-2.641 12.524-6.2 30.873-8.194l16.372-2.201 75.797-8.222c4.851-.525 9.429-.792 13.603-.793 27.857 0 32.859 10.701 34.115 22.26 1.586 14.667-2.123 25.793-11.677 35.014-10.354 9.995-26.481 16.243-47.935 18.57zM1122.09 849.862l-19.182 2.022c-7.598.796-11.7 5.252-11.11 13.205l4.736 63.713c.59 7.967-3.113 12.379-11.11 13.22l-44.752 4.707c-7.599.797-12.32-3.113-12.881-10.683l-18.901-254.45c-.591-7.968 3.113-12.38 11.081-13.619l87.925-9.252c71.133-7.495 102.164 19.728 107.003 85.034 4.855 65.335-21.675 98.608-92.809 106.103zM928.998 544.935c-3.13.505-6.245 1.14-9.369 1.707-18.19 2.823-32.856 5.259-40.983 6.918-5.166 1.057-23.419 4.211-44.291 8.139l-.069.01v.003c-25.038 4.714-53.834 10.544-68.485 15.257-24.214 7.788-48.961 9.423-74.209 2.802-7.605-1.993-78.515-7.291-104.571-18.159-9.79-4.086-19.447-11.836-31.251-7.663v-.024c6.307-14.047 16.038-25.435 26.702-36.817 33.674-35.943 72.386-62.461 111.88-91.706 43.047-25.444 59.076-72.34 55.515-79.463-4.378-8.756-62.774-35.171-84.345-41.465-11.228-3.947-22.713-7.416-35.292-8.41-29.61-2.343-59.348-3.074-89.043-4.07-12.407-.417-37.205-.374-66.606.115 46.3-11.711 124.988-24.805 165.056-41.512 19.052 2.838 39.875 5.021 58.641 4.897 52.45-.349 66.549.963 95.573-17.225 29.023-18.188 39.137-45.59 30.931-62.875-1.025-2.159-2.777-4.032-5.069-5.665 53.617-6.298 109.637 15.871 156.303 57.867 33.898 30.504 77.702 56.571 107.253 72.518l.427 14.772s-4.035 9.564-9.981 12.381c-5.95 2.817-14.807 19.232-14.807 19.232v22.409s-23.849 9.799-37.469 15.579c-13.621 5.778-33.558 29.973-41.03 40.541-7.472 10.571-3.666 28.55-3.701 42.552-.022 9.217 7.437 18.923 12.578 24.545l-.01.013.111.098c2.615 2.849 4.651 4.693 4.651 4.693h.66c7.665 6.731 22.141 19.268 34.265 28.697 4.049 3.149 11.365 4.974 20.13 5.961a47306.035 47306.035 0 00-70.736 9.857c-23.7 2.823-42.297 1.895-49.363 3.491zM952.85 955.98l-44.767 4.722c-7.584.796-12.306-3.128-12.866-10.698l-11.656-156.89c-.207-2.788-3.823-2.803-4.427.045l-26.957 162.983c-1.108 6.95-5.224 10.993-12.424 11.746l-26.383 2.788c-7.185.753-11.848-2.375-13.943-8.971l-50.566-154.824c-1.017-2.686-4.574-1.904-4.367.885l11.642 156.89c.56 7.569-3.114 12.365-11.096 13.206l-44.752 4.721c-7.997.842-12.32-3.128-12.881-10.697l-18.93-254.849c-.591-7.967 3.113-12.364 11.11-13.206l82.731-8.72c7.186-.752 11.48 2.819 13.575 9.414l36.976 112.891c1.107 3.91 4.309 3.571 4.795-.517l19.772-118.851c1.107-6.95 4.795-11.347 11.996-12.099l82.716-8.721c7.998-.841 12.291 2.73 12.881 10.698l18.916 254.848c.561 7.555-3.113 12.365-11.095 13.206zM356.503 296.116c-1.682.094-3.358.189-5.003.286-2.772-2.151-7.771-7.925 7.257-14.662 19.013-8.523 145.555-35.406 145.555-35.406zm768.055-137.857c13.768-14.642 30.596-25.57 30.596-25.57s-19.669 20.543-33.002 42.18c-14.721 23.892-13.548 45.895-13.548 45.895l-13.551-11.06-4.251-8.344s17.477-25.789 33.756-43.101zm180.406 284.44c4.78 4.781 4.78 12.525 0 17.306a12.205 12.205 0 01-8.654 3.586 12.201 12.201 0 01-8.654-3.586l-67.522-67.52c-4.781-4.782-4.781-12.526 0-17.307 4.78-4.781 12.522-4.781 17.303 0zm70.262-7.434c4.78 4.78 4.78 12.525 0 17.306a12.205 12.205 0 01-8.655 3.586c-3.13 0-6.261-1.196-8.651-3.586l-111.526-111.528c-4.781-4.78-4.781-12.526 0-17.306 4.78-4.781 12.527-4.781 17.307 0zm31.075-46.629c4.781 4.781 4.781 12.526 0 17.306a12.197 12.197 0 01-8.654 3.586 12.2 12.2 0 01-8.654-3.586l-88.844-88.843c-4.78-4.78-4.78-12.525 0-17.306 4.782-4.781 12.528-4.781 17.308 0zm22.763-37.633a12.2 12.2 0 01-8.653 3.585 12.2 12.2 0 01-8.654-3.585l-51.226-51.217c-4.781-4.782-4.781-12.526 0-17.307 4.781-4.781 12.528-4.781 17.308 0l51.225 51.218c4.781 4.781 4.781 12.526 0 17.306zm-109.117-181.274c.616 0 1.225.026 1.837.046v.021c.129-.003.262-.008.392-.01.133.002.261.007.394.01v-.021c.613-.02 1.221-.046 1.837-.046 106.488 0 192.814 86.327 192.814 192.813 0 32.211-8.083 62.452-22.075 89.118-4.575-.327-9.18-.605-13.952-.605-8.093 0-16.476.47-25.133 1.409-4.907.531-9.658 1.455-14.45 2.28 19.511-25.615 31.174-57.501 31.174-92.2 0-84.41-68.428-152.839-152.838-152.839-84.409 0-152.84 68.429-152.84 152.839 0 63.383 38.588 117.744 93.547 140.901-17.781 2.141-39.274 4.878-63.18 8.014-42.949-35.364-70.341-88.938-70.341-148.917 0-106.486 86.324-192.813 192.814-192.813zm-105.133-53.351c6.428-7.574 25.575-27.623 54.97-36.906 31.144-9.834 52.392-6.884 52.392-6.884s-39.119 3.279-71.077 29.94c-11.345 9.465-19.553 18.698-23.047 22.85a6.31 6.31 0 00-1.408 5.099l6.422 39.252-19.233-46.911c-.895-2.184-.546-4.642.981-6.44zM289.043 303.037a5158.74 5158.74 0 01-19.944 3.705c.042-3.187 1.461-6.913 4.433-10.158 4.894-5.339 11.619-7.139 15.023-4.019 2.425 2.223 2.414 6.354.488 10.472zM417.833-4.998c-2.686 4.652-7.828 6.71-11.487 4.598-3.658-2.113-4.447-7.595-1.761-12.247s7.829-6.71 11.488-4.598c3.657 2.113 4.446 7.595 1.76 12.247zm1332.913 134.383c39.366-11.296 49.978-10.611 49.978-1.712 0 9.243-34.574 2.738-69.83 17.8-26.248 11.213-70.515 44.157-70.515 44.157s51.003-48.949 90.367-60.245zM2207.69 10.629s8.197-23.276 12.789-24.587c4.587-1.311 10.162 1.967 7.212 10.818-2.951 8.851-20.001 15.407-20.001 15.407zm-374.069 452.122c-59.017 4.669-123.468 9.549-167.748 12.865 1.021-2.657 1.776-5.36 1.77-8.036-.034-14.002 3.773-31.981-3.701-42.552-7.473-10.568-27.407-34.763-41.03-40.541-13.619-5.78-37.469-15.579-37.469-15.579v-22.409s-8.858-16.415-14.804-19.232c-5.947-2.817-9.986-12.381-9.986-12.381l.43-14.772c29.553-15.947 73.354-42.014 107.253-72.518 46.666-41.996 102.685-64.165 156.304-57.867-2.291 1.633-4.043 3.506-5.069 5.665-8.208 17.285 1.907 44.687 30.93 62.875 29.023 18.188 43.125 16.876 95.572 17.225 18.765.124 39.591-2.059 58.64-4.897 43.741 18.238 133.622 32.177 177.011 44.703 49.453 14.278 143.033 32.076 143.033 32.076s4.808 19.56 24.478 23.495c19.669 3.933 34.096-16.61 34.97-32.346.874-15.736-2.187-29.285-22.295-37.003-20.107-7.715-30.466 6.432-30.466 6.432l-61.749-27.069c-25.611-3.663-50.716-8.363-50.716-8.363l-106.191-28.349 138.102 20.078v-5.982c0-2.888-9.619-25.171-9.619-25.171l-209.809-54.464s-12.381 4.363-19.596-16.631c-2.243-6.529-8.049-15.553-15.539-24.603 8.072-7.226 18.198-14 30.998-18.892 46.475-17.763 184.224-64.535 184.224-64.535s54.917-1.677 45.677-32.783c-9.241-31.106-34.754-35.273-47.219-16.805-12.464 18.467-20.314 25.984-20.314 25.984S2017.257 68.553 1987.1 83.718c-5.06 2.543-9.861 6.243-14.392 10.539-11.662-9.035-23.274-14.369-30.811-10.539-15.846 8.053-20.509 45.447-21.575 56.894-26.703-10.509-57.925-20.766-89.408-28.337-69.332-16.676-137.082 18.683-184.755 63.119-23.106 21.538-55.025 37.444-82.861 48.377l.904-31.154s-28.789-48.288-66.409-70.684c-37.621-22.395-55.744-17.644-55.744-17.644s-38.052-49.256-119.479-49.669v-.031c-.136 0-.258.015-.394.015-.133 0-.257-.015-.392-.015v.031c-81.429.413-119.482 49.669-119.482 49.669s-18.123-4.751-55.742 17.644c-37.621 22.396-66.41 70.684-66.41 70.684l.903 31.154c-27.836-10.933-59.751-26.839-82.86-48.377-47.674-44.436-115.423-79.795-184.756-63.119-31.482 7.571-62.702 17.828-89.405 28.337-1.069-11.447-5.728-48.841-21.575-56.894-7.536-3.83-19.148 1.504-30.812 10.539-4.532-4.296-9.333-7.996-14.39-10.539-30.159-15.165-202.596-73.349-202.596-73.349s-7.847-7.517-20.313-25.984c-12.467-18.468-37.978-14.301-47.218 16.805-9.241 31.106 45.678 32.783 45.678 32.783s137.749 46.772 184.221 64.535c12.8 4.892 22.928 11.666 30.998 18.892-7.487 9.05-13.294 18.074-15.537 24.603-7.217 20.994-19.597 16.631-19.597 16.631l-209.81 54.464s-9.616 22.283-9.616 25.171v5.982l138.099-20.078-106.19 28.349s-25.107 4.7-50.715 8.363l-61.749 27.069s-10.362-14.147-30.47-6.432c-15.61 5.993-20.892 15.525-22.089 26.843-31.052 5.689-62.12 11.429-92.75 18.944-8.215 2.016-15.502 13.177-10.031 17.82 8.024 6.805 12.262 16.803 24.632 20.562 34.756 10.56 70.343 17.616 105.589 25.759 27.135 6.27 53.187 14.603 81.435 25.108-14.683 12.056-29.199 21.905-43.14 31.767-45.619 32.267-89.88 66.153-134.779 99.281-28.15 20.773-59.312 37.66-84.566 62.27-5.558 5.417-10.346 28.345-10.689 34.328 32.66-1.95 70.586-9.041 120.367-8.601 16.998.15 108.911 6.23 138.373 10.708 21.638 3.289 42.786 8.423 63.799 15.037 248.842 21.012 79.726 29.916 112.97 55.809 7.912 6.084 15.497 8.912 24.904 8.993v-.001c6.751 1.65 9.997 5.628 9.768 12.487-.251 7.594-2.066 119.146 5.079 167.286 1.867 12.568 11.414 92.104 15.538 119.213 2.943 19.35 16.967 36.581 9.771 60.149 32.739 18.243 119.541 19.337 146.975 14.344 29.594-5.389 59.979-6.895 90.188-8.854 31.384-2.035 59.951-4.752 95.849-8.781.45.182.724.297.724.297 5.799-.412 16.2-1.787 29.005-3.666 62.547-1.594 127.218-1.823 186.92-10.745 11.99-1.793 156.116-10.217 222.661-12.915 39.688-1.609 162.568-14.704 220.958-20.975 10.43 11.707 24.501 17.671 42.359 17.671a91.96 91.96 0 009.856-.552c18.779-2.043 35.263-11.225 49.451-27.532 52.428-5.538 104.728-11.99 156.601-21.474 15.78-2.884 31.487-7.891 47.843-8.052-59.682 40.581-115.735 86.224-181.096 118.9-1.767.882 1.448 10.169 4.865 13.128 4.894 5.055 6.724 13.843 17.089 12.069 6.468-1.109 63.421-11.832 85.577-15.155 83.51-12.526 420.594-85.787 444.892-91.432 30.223-7.023 167.993-29.858 205.798-38.759 25.861-6.092 53.623-8.878 72.576-30.272.35-.393 1.25-.329 1.893-.48l.694-3.769c-6.155-8.238-9.658-19.247-20.939-22.497-26.651-7.678-131.902-26.301-157.443-31.093-48.994-9.191-163.291-21.659-171.452-26.279 35.51-28.82 68.118-58.396 102.203-86.39 33.175-27.25 63.531-57.168 90.474-90.247 10.085-12.386 8.092-18.791-7.252-23.673-19.875-6.321-64.264-8.06-139.439 5.766-74.325 14.52-117.738 8.761-199.592 20.637-6.604.959-13.028 2.42-18.221 6.888-3.476 2.039-.215 7.867-5.331 8.915-.42.011-.8.139-1.197.222 7.523-15.074 8.333-32.107 13.497-47.824 17.661-53.735 36.06-107.229 59.244-159.005 2.36-5.268 13.681-49.9 14.725-55.553 2.755-14.917-.631-26.779-19.37-31.415-10.938 4.977-21.953 9.643-33.858 12.194-.073-1.156.089-2.207-.039-3.39-2.588-23.833-18.964-35.744-49.14-35.743-4.732.001-9.811.294-15.224.881l-75.799 8.222-16.751 2.247c-16.945 1.837-29.342 5.367-37.204 10.569-7.866 5.207-14.717 14.394-20.549 27.507"/></g></svg>