<svg width="3214.002" height="1796.949" viewBox="0 0 850.371 475.443" xmlns="http://www.w3.org/2000/svg"><defs><clipPath id="a"><path transform="matrix(1 0 0 -1 0 3467.57)" d="M0 3467.57h2617.18V0H0z"/></clipPath></defs><g clip-path="url(#a)" transform="translate(-61.27 -123.479) scale(.35278)"><path d="M1971.91 1023.874c0 372.161-301.695 673.856-673.856 673.856-372.16 0-673.857-301.695-673.857-673.856 0-372.16 301.696-673.856 673.857-673.856 372.161 0 673.856 301.695 673.856 673.856M408.194 677.154c3.311-15.645 6.45-26.16 20.62-37.213 26.626-20.769 65.502-23.699 65.502-23.699s-31.154 8.788-53.52 27.427c-43.165 35.97-9.853 86.006-20.504 74.29a156.529 156.529 0 01-6.334-7.424c-7.52-9.392-8.255-21.61-5.764-33.38m80.99 90.67c66.085 14.131 112.531 5.17 146.401-11.535 1.705-.842 3.245-1.752 4.76-2.672l-55.348-25.485s-54.245 7.456-56.149-33.018c-1.903-40.473 35.848-43.503 36.497-44.113.651-.61 17.753.503 28.552 15.651 10.8 15.148 12.397 19.04 12.397 19.04l58.86 23.506c.832-8.959.724-17.793 1.336-25.514 1.822-23.017.515-52.475-39.154-80.697-39.668-28.22-166.959 4.79-195.428 18.06-28.469 13.27-37.198 41.05-37.198 41.05-18.272 68.698 28.388 91.597 94.473 105.727m1481.882-134.008c12.78-18.639 31.42-31.953 47.396-32.485 15.976-.533 22.214 10.217 5.503 9.94-32.13-.532-65.68 41.184-52.899 22.545m-25.018 75.382l58.86-23.506s1.597-3.892 12.397-19.04c10.8-15.149 27.902-16.26 28.551-15.65.65.61 38.401 3.64 36.498 44.112-1.903 40.473-56.148 33.018-56.148 33.018l-55.349 25.485c1.516.92 3.056 1.83 4.761 2.672 33.87 16.704 80.315 25.666 146.401 11.536 66.085-14.13 112.745-37.03 94.474-105.729 0 0-8.73-27.78-37.198-41.05-28.469-13.269-155.76-46.28-195.428-18.059-39.669 28.222-40.978 57.68-39.155 80.697.612 7.721.503 16.555 1.336 25.514" fill="#f2f09e"/><path d="M1937.16 973.955a634.298 634.298 0 00-7.765-62.796c27.952 6.18 56.182 11.737 74.365 16.986 34.533 9.97 95.514 22.046 111.955 25.24-4.31 1.664-8.72 3.077-13.386 3.883-14.923 2.58-30.119 3.329-45.013 6.303-7.039 1.405-64.492 6.072-120.156 10.384M591.931 1151.129c-15.122 4.863-30.577 5.885-46.343 1.75-4.748-1.245-49.032-4.553-65.303-11.341-6.114-2.551-12.146-7.391-19.517-4.784l.001-.015c3.938-8.773 10.015-15.885 16.676-22.993 21.03-22.445 45.203-39.006 69.866-57.27 26.884-15.89 36.894-45.175 34.67-49.624-2.735-5.468-39.203-21.964-52.673-25.895-7.01-2.464-14.185-4.63-22.039-5.251-13.332-1.055-26.705-1.585-40.079-2.033a20.026 20.026 0 004.193-.391c15.976-3.195 19.881-19.083 19.881-19.083s76.011-14.457 116.178-26.054c18.184-5.25 46.42-10.806 74.374-16.988-6.23 35.654-9.489 72.33-9.489 109.769 0 38.277 3.395 75.76 9.903 112.166-8.687 1.379-15.636 2.562-19.827 3.418-7.1 1.45-53.683 9.219-70.472 14.619M451.66 941.628c-2.765-2.534-1.783-8.103 2.19-12.44 3.976-4.337 9.438-5.798 12.203-3.264 2.764 2.533 1.784 8.103-2.19 12.439-3.975 4.337-9.438 5.798-12.203 3.265m71.414-24.497c15.443-6.923 118.226-28.757 118.226-28.757l-123.02 41.432s-10.65-5.752 4.793-12.675m782.532-341.211c144.472 0 272.803 68.895 354.098 175.57-37.715 7.116-75.679 27.189-109.824 59.017-6.636 6.19-15.124 12.245-25.173 18.009-6.062-9.724-29.896-45.682-62.306-64.975-20.375-12.124-36.249-16.753-47.669-18.111-16.158-14.853-51.71-39.938-107.907-40.445l-.33-.02-2.21.02c-56.138.534-91.67 25.598-107.813 40.445-11.42 1.358-27.302 5.987-47.67 18.11-32.41 19.294-56.245 55.245-62.306 64.976-10.042-5.764-18.53-11.82-25.173-18.01-34.14-31.824-72.1-51.898-109.815-59.017 81.295-106.674 209.627-175.57 354.098-175.57M571.057 684.232c-2.18 3.779-6.358 5.45-9.33 3.735-2.97-1.716-3.612-6.17-1.43-9.948 2.18-3.778 6.358-5.45 9.33-3.734 2.971 1.716 3.612 6.169 1.43 9.947m1453.795 12.693s6.657-18.906 10.384-19.97c3.73-1.066 8.255 1.597 5.86 8.787-2.398 7.189-16.244 12.514-16.244 12.514zm375.068 570.125c-16.643-4.794-82.37-16.425-98.323-19.418-30.596-5.74-101.972-13.525-107.07-16.41 22.177-17.998 42.54-36.468 63.824-53.95 20.72-17.018 39.676-35.702 56.5-56.358 6.3-7.735 5.056-11.735-4.527-14.784-12.412-3.948-40.132-5.034-87.079 3.6-46.415 9.068-73.526 5.47-124.644 12.888-4.124.598-8.136 1.51-11.379 4.302-1.175.689-1.127 2.066-1.334 3.294-.81.54-1.34 1.289-1.707 2.162-.104.032-.169.087-.288.11-.262.008-.5.088-.748.139 4.7-9.413 5.203-20.05 8.43-29.865 11.027-33.557 22.518-66.964 36.997-99.297 1.23-2.744 6.336-22.53 8.382-31.094.95.312 1.813.704 2.865.914 15.977 3.195 27.693-13.492 28.403-26.272.71-12.782-1.776-23.787-18.107-30.055-16.332-6.267-24.747 5.224-24.747 5.224l-50.156-21.987c-20.8-2.975-41.193-6.792-41.193-6.792l-86.252-23.028 112.17 16.31v-4.86c0-2.346-7.81-20.444-7.81-20.444l-144.51-37.514a628.54 628.54 0 00-22.286-58.185c42.901-15.923 142.653-49.794 142.653-49.794s44.607-1.362 37.101-26.627c-7.506-25.266-28.228-28.65-38.352-13.651-10.125 15-16.5 21.106-16.5 21.106s-85.846 28.967-134.876 47.455c-102.714-211.061-319.242-356.522-569.752-356.522-250.51 0-467.039 145.462-569.753 356.525-49.028-18.488-134.883-47.458-134.883-47.458s-6.375-6.106-16.5-21.106c-10.124-15-30.846-11.615-38.353 13.65-7.506 25.266 37.102 26.628 37.102 26.628s99.763 33.875 142.661 49.797a628.522 628.522 0 00-22.283 58.179l-144.52 37.517s-7.812 18.098-7.812 20.445v4.859l112.17-16.31-86.253 23.028s-20.39 3.817-41.19 6.792l-50.157 21.987s-8.416-11.491-24.747-5.224c-16.332 6.268-18.817 17.273-18.107 30.055.637 11.473 10.148 26.085 23.645 26.644-4.987-.166-9.976-.323-14.962-.49-24.67-.828-127.693 1.246-152.634 6-26.912 5.13-54.054 9.524-80.67 16.055-5.13 1.258-9.68 8.228-6.263 11.128 5.01 4.25 7.657 10.493 15.382 12.84 21.704 6.595 43.928 11.002 65.94 16.087 16.945 3.915 33.215 9.119 50.855 15.68-9.17 7.528-18.234 13.68-26.94 19.837-28.488 20.15-56.13 41.313-84.169 62-17.58 12.973-37.04 23.519-52.812 38.889-3.469 3.382-6.46 17.7-6.674 21.437 20.395-1.218 44.081-5.646 75.17-5.371 10.613.094 68.012 3.89 86.41 6.686 13.513 2.054 26.72 5.26 39.842 9.39 25.503 8.029 49.51 18.673 70.55 34.853 4.94 3.8 9.678 5.566 15.553 5.616 4.217 1.03 6.243 3.514 6.101 7.798-.157 4.742-1.29 74.406 3.172 104.469 1.165 7.848 7.126 57.518 9.703 74.447 1.838 12.084 10.596 22.845 6.102 37.563 20.445 11.392 74.653 12.076 91.784 8.957 18.483-3.365 37.464-4.203 56.323-5.528 25.001-1.758 49.91-4.58 74.826-7.2 15.967-1.677 31.962-3.357 47.786-5.88 14.61-2.33 28.98-5.912 43.507-8.714 5.851-1.13 18.677-3.338 34.124-5.936 115.924 128.883 283.98 209.938 470.974 209.938 220.122 0 414.004-112.314 527.491-282.754l13.668-1.481c15.04-1.633 26.5-6.2 34.355-13.698 7.861-7.501 11.155-17.064 9.897-28.678-.274-2.531-.823-4.824-1.61-6.907 28.91-3.198 57.738-6.988 86.363-12.222 9.856-1.802 19.664-4.928 29.88-5.03-37.273 25.344-72.277 53.847-113.095 74.253-1.104.55.904 6.35 3.038 8.199 3.056 3.157 4.2 8.645 10.672 7.536 4.04-.692 39.606-7.388 53.442-9.463 52.151-7.823 262.658-53.573 277.832-57.1 18.874-4.384 104.911-18.646 128.518-24.204 16.152-3.804 33.49-5.544 45.325-18.905.217-.245.78-.206 1.182-.3.145-.784.29-1.568.433-2.353-3.843-5.144-6.03-12.02-13.076-14.05" fill="#f2f09e"/><path d="M1565.132 791.336c-6.636 6.19-15.124 12.245-25.173 18.009-6.061-9.724-29.895-45.682-62.306-64.975-20.375-12.124-36.25-16.753-47.668-18.111-16.16-14.854-51.711-39.938-107.908-40.445l-.332-.02-2.21.02c-56.135.534-91.668 25.598-107.812 40.445-11.42 1.358-27.301 5.987-47.67 18.11-32.41 19.294-56.243 55.245-62.305 64.976-10.042-5.764-18.53-11.82-25.173-18.01-34.141-31.824-72.101-51.898-109.815-59.017 81.295-106.674 209.627-175.57 354.099-175.57 144.47 0 272.802 68.897 354.097 175.57-37.715 7.117-75.678 27.19-109.824 59.018m-244.273-422.861c-349.751 0-633.28 283.529-633.28 633.279s283.529 633.28 633.28 633.28c349.75 0 633.279-283.53 633.279-633.28s-283.528-633.28-633.28-633.28" fill="#f5e02c"/><path d="M862.465 650.294c1.533-1.893 3.433-2.088 5.562-1.068l36.599 17.3c1.223.642 1.905-.203 1.027-1.257l-24.531-32.214c-1.445-1.865-1.641-3.764-.114-5.657l17.61-21.746c1.703-2.102 3.602-2.297 5.704-.594l67.219 54.44c2 1.615 2.298 3.602.595 5.703l-9.522 11.76c-1.622 2-3.703 2.215-5.704.6l-41.377-33.51c-.744-.596-1.615.262-1.047 1.066l33.66 44.128c1.439 1.865 1.453 3.785-.075 5.677l-5.622 6.933c-1.527 1.892-3.406 2.277-5.535 1.257l-50.162-23.753c-.9-.385-1.561.648-.824 1.243l41.384 33.512c1.993 1.615 2.304 3.601.6 5.703l-9.527 11.766c-1.703 2.101-3.71 2.21-5.704.601l-67.22-54.44c-2.107-1.71-2.304-3.609-.6-5.71zm111.643-68.551c-4.21-4.926-7.04-6.785-13.819-.986-6.778 5.798-5.393 8.88-1.183 13.805l9.576 11.198c1.67 1.953 3.771 2.115 5.717.453l8.832-7.555c1.967-1.859 2.115-3.764.358-5.819zm54.9 28.457c1.933 2.257 1.96 4.365-.094 6.13l-11.502 9.831c-1.96 1.67-3.967 1.603-5.724-.452l-7.636-8.934c-1.757-2.054-3.656-2.203-5.71-.446l-8.839 7.55c-1.947 1.668-2.204 3.661-.454 5.716l7.651 8.933c1.75 2.055 1.601 3.961-.446 5.724l-11.516 9.833c-1.952 1.662-4.136 1.398-6.062-.865l-37.234-43.554c-11.063-12.94-20.773-28.464 2.345-48.216 23.118-19.76 36.93-7.75 47.993 5.19zm-18.38-95.432c1.959-1.19 3.724-1.156 5.656.196l39.093 28.909c1.095.757 1.872-.033 1.183-1.19l-22.7-37.302c-1.405-2.311-.831-4.237 1.366-5.574l12.927-7.867c2.312-1.405 4.176-.952 5.576 1.359l44.952 73.909c1.33 2.196.946 4.169-1.352 5.575l-16.982 10.319c-1.966 1.203-3.73 1.163-5.656-.196l-39.093-28.903c-1.102-.756-1.886.034-1.176 1.19l22.679 37.303c1.338 2.195.959 4.169-1.352 5.574l-12.934 7.866c-2.197 1.332-4.238.838-5.57-1.358l-44.951-73.91c-1.412-2.31-.845-4.243 1.352-5.574zm117.76-17.368c-3.893-9.65-6.906-15.285-16.178-11.535-9.278 3.75-7.521 9.893-3.615 19.544l7.29 18.043c3.907 9.657 6.914 15.293 16.192 11.542 9.279-3.751 7.522-9.893 3.616-19.543zm31.552 15.976c3.344 8.272 10.562 31.167-19.145 43.175-29.707 12.016-40.431-9.461-43.77-17.732l-12.684-31.335c-3.345-8.272-10.556-31.167 19.15-43.176 29.702-12.015 40.433 9.46 43.778 17.733zm50.196-1.095c6.325-1.46 9.326-2.852 7.894-9.049-1.433-6.19-4.542-6.44-10.868-4.98l-8.561 1.98c-2.5.581-3.643 2.23-3.034 4.865l1.39 6.062c.616 2.629 2.366 3.616 4.88 3.034zm-8.677-32.694c6.325-1.46 9.313-2.98 7.42-11.15-1.892-8.163-5.237-8.224-11.556-6.765l-7.123 1.642c-2.493.589-3.641 2.237-3.027 4.866l2.312 10.015c.608 2.635 2.365 3.615 4.865 3.041zM1189.97 439.5c24.768-5.723 36.566 2.095 41.56 23.699 1.04 4.481 1.737 13.482-2.297 20.652 5.987 1.257 11.454 6.927 13.34 15.097 3.777 16.333-1.643 25.916-26.41 31.64l-32.532 7.521c-2.5.581-4.291-.534-4.865-3.041l-19.462-84.174c-.615-2.629.398-4.258 3.007-4.994zm86.074 10.137c-2.426.169-4.055 2.041-3.886 4.467l.69 9.988c.169 2.426 2.041 4.054 4.467 3.892l6.878-.473c6.475-.453 9.658-1.487 9.077-9.853-.575-8.359-3.872-8.94-10.34-8.494zm47.858 60.934c2.136 3.372.23 7.298-3.946 7.589l-15.381 1.061c-1.344.095-2.608-.5-3.23-1.676l-15.901-26.138c-.304-.386-.723-.629-1.135-.602l-5.386.372c-2.433.168-4.062 2.047-3.893 4.473l1.474 21.314c.169 2.426-1.46 4.298-3.893 4.467l-15.11 1.047c-2.433.169-4.305-1.459-4.474-3.892l-5.947-86.053c-.169-2.433 1.46-4.305 3.893-4.474l29.538-2.041c24.011-1.662 34.437 7.921 35.965 30.039.865 12.542-1.629 21.523-8.427 27.145-.514.446-.602 1.129-.284 1.785zm53.968-50.068c.635-6.46.01-9.778-8.874-10.65-8.872-.872-10.136 2.264-10.778 8.717l-1.433 14.664c-.257 2.555 1.088 4.184 3.636 4.434l11.576 1.142c2.696.128 4.176-1.088 4.446-3.778zm17.535 59.306c-.29 2.96-1.797 4.446-4.479 4.183l-15.078-1.48c-2.554-.25-3.899-1.743-3.635-4.433l1.15-11.704c.263-2.69-.947-4.164-3.643-4.427l-11.563-1.142c-2.56-.25-4.17.953-4.434 3.642l-1.148 11.705c-.27 2.69-1.75 3.906-4.433 3.642l-15.07-1.486c-2.555-.25-3.879-2.007-3.588-4.967l5.602-57.035c1.67-16.949 6.13-34.715 36.397-31.748 30.268 2.973 31.187 21.266 29.518 38.215zm69.268-42.371c-2.751-.115-3.778-1.615-3.528-4.338.392-5.61-3.11-10.077-9.28-11.583-5.121-1.25-9.006 1-9.215 4.15-.657 10.69 40.897 20.542 33.53 50.743-.958 3.94-11.088 26.091-42.208 18.502-27.571-6.724-29.065-26.287-27.22-36.68.44-2.399 1.98-3.555 4.474-3.5l15.63.33c2.75.115 3.906 1.65 3.5 4.474-1.006 6.426 2.947 11.292 9.117 12.792 6.433 1.568 12.096-1.088 12.17-4.825.223-11.765-39.897-18.908-32.537-49.108.83-3.967 8.859-26.633 38.268-19.463 27.045 6.596 29.059 25.727 27.545 35.377-.446 2.392-1.987 3.548-4.474 3.494zm102.237 48.932c5.777 2.954 9.042 3.71 12.854-3.75 3.81-7.46 1.29-9.656-4.48-12.61l-6.502-3.325c-2.284-1.168-4.224-.641-5.447 1.765l-4.676 9.143c-1.176 2.284-.52 4.284 1.764 5.453zm18.232-37.423c21.415 10.947 25.403 24.524 15.313 44.256-10.089 19.732-23.429 24.443-44.844 13.495l-5.77-2.96c-2.292-1.17-4.225-.642-5.454 1.764l-9.847 19.253c-1.23 2.406-3.047 2.993-5.46 1.757l-13.468-6.886c-2.284-1.17-2.932-3.17-1.764-5.454l39.31-76.876c1.236-2.405 3.055-2.993 5.521-1.885zm61.468 76.909c3.798-5.25 4.934-8.434-2.297-13.657-7.23-5.218-9.9-3.136-13.698 2.115l-8.609 11.94c-1.507 2.082-1.169 4.157.912 5.664l9.414 6.798c2.277 1.473 4.155 1.17 5.743-1.027zm-14.685 60.05c-1.736 2.411-3.79 2.94-5.98 1.357l-12.259-8.859c-2.08-1.5-2.5-3.466-.912-5.656l6.88-9.529c1.581-2.189 1.27-4.074-.919-5.662l-9.42-6.799c-2.089-1.5-4.075-1.277-5.657.92l-6.879 9.528c-1.58 2.19-3.474 2.493-5.663.912l-12.273-8.86c-2.08-1.5-2.337-3.682-.594-6.095l33.525-46.446c9.975-13.806 22.753-26.903 47.405-9.109 24.646 17.786 16.24 34.052 6.28 47.858zm74.532-21.254c-1.729-1.716-4.217-1.709-5.927.021l-7.054 7.095c-1.71 1.73-1.704 4.21.027 5.926l4.892 4.86c4.602 4.575 7.481 6.277 13.387.33 5.9-5.946 4.17-8.805-.439-13.38zm-14.252 76.14c-1.136 3.824-5.332 4.986-8.306 2.033l-10.933-10.852c-.967-.953-1.359-2.29-.886-3.535l9.171-29.193c.095-.473-.01-.953-.291-1.237l-3.838-3.81c-1.73-1.717-4.21-1.704-5.927.02l-15.043 15.163c-1.716 1.724-4.196 1.73-5.932.021l-10.745-10.67c-1.724-1.71-1.738-4.197-.021-5.927l60.759-61.205c1.723-1.73 4.196-1.737 5.92-.02l21.016 20.854c17.077 16.948 16.752 31.1 1.135 46.831-8.859 8.927-17.259 12.97-25.963 11.57-.669-.095-1.236.29-1.527.96zm72.875 6.886c5.23-3.838 7.285-6.521 2.007-13.718-5.29-7.19-8.46-6.034-13.69-2.196l-11.875 8.724c-2.067 1.514-2.39 3.595-.87 5.663l6.871 9.373c1.717 2.102 3.603 2.392 5.78.79zm-32.45 52.656c-2.4 1.758-4.508 1.629-6.103-.554l-8.96-12.197c-1.52-2.068-1.31-4.07.865-5.67l9.481-6.961c2.183-1.601 2.473-3.486.871-5.663l-6.879-9.38c-1.52-2.067-3.487-2.473-5.67-.864l-9.474 6.953c-2.183 1.601-4.068 1.31-5.669-.872l-8.968-12.198c-1.514-2.075-1.088-4.23 1.31-5.994l46.21-33.91c13.725-10.083 29.93-18.618 47.926 5.9 17.995 24.524 4.994 37.418-8.738 47.493zM423.447 657.983c3.311-15.645 6.45-26.161 20.618-37.213 26.628-20.77 65.503-23.698 65.503-23.698s-31.154 8.787-53.52 27.426c-43.164 35.969-9.853 86.006-20.503 74.29a156.036 156.036 0 01-6.334-7.424c-7.52-9.392-8.255-21.61-5.764-33.381m80.99 90.672c66.084 14.13 112.531 5.168 146.4-11.536 1.706-.842 3.245-1.752 4.76-2.672l-55.347-25.485s-54.245 7.456-56.149-33.018c-1.904-40.473 35.848-43.503 36.497-44.113.65-.61 17.753.503 28.552 15.65 10.8 15.149 12.397 19.04 12.397 19.04l58.86 23.507c.832-8.96.724-17.792 1.335-25.514 1.823-23.017.516-52.475-39.153-80.697-39.668-28.221-166.959 4.79-195.428 18.06-28.469 13.269-37.198 41.05-37.198 41.05-18.272 68.698 28.388 91.598 94.473 105.728m1481.881-134.009c12.781-18.64 31.42-31.953 47.396-32.485 15.977-.533 22.215 10.217 5.503 9.94-32.129-.532-65.679 41.184-52.899 22.545m-25.017 75.382l58.86-23.506s1.597-3.892 12.396-19.04c10.8-15.15 27.903-16.261 28.552-15.651.65.61 38.401 3.64 36.498 44.113-1.904 40.473-56.149 33.018-56.149 33.018l-55.348 25.485c1.516.92 3.055 1.83 4.761 2.672 33.87 16.704 80.315 25.667 146.4 11.536 66.086-14.131 112.745-37.03 94.475-105.728 0 0-8.73-27.781-37.199-41.051-28.469-13.27-155.759-46.28-195.428-18.06-39.668 28.223-40.977 57.68-39.154 80.698.612 7.722.503 16.555 1.336 25.514" fill="#2b0604"/><path d="M1842.983 963.048c-7.103-1.66-187.192 11.784-187.192 11.784-5.529-.337-40.774 3.64-86.007 9.219-1.618-1.092-3.188-2.011-4.66-2.636-11.063-4.694-30.435-12.654-30.435-12.654V950.56s-7.194-13.333-12.024-15.621c-4.83-2.288-8.11-10.057-8.11-10.057l.348-11.998c24.003-12.952 59.582-34.125 87.115-58.902 37.904-34.111 83.405-52.117 126.956-47.001-1.862 1.326-3.285 2.846-4.118 4.6-6.665 14.04 1.55 36.297 25.124 51.07 23.573 14.774 35.027 13.708 77.627 13.99 15.242.102 32.157-1.671 47.631-3.976 35.526 14.814 108.53 26.134 143.773 36.309 34.534 9.97 95.516 22.046 111.956 25.24-4.31 1.664-8.719 3.077-13.385 3.883-14.923 2.579-30.12 3.329-45.013 6.303-14.072 2.809-229.586 18.648-229.586 18.648m-37.354 10.114l.092-.024.05.076zm-.01.024l-.01-.02.02.002zm-451.912 39.238c-9.816 1.387-16.249 2.342-18.064 2.696-1.556.304-3.713.67-6.273 1.08l-70.07-70.071a9.939 9.939 0 010-14.058 9.94 9.94 0 0114.057 0zm35.475-27.64a9.938 9.938 0 010 14.058 9.908 9.908 0 01-7.028 2.913 9.907 9.907 0 01-7.029-2.913l-72.162-72.162c-3.883-3.882-3.883-10.174 0-14.057a9.938 9.938 0 0114.057 0zm18.49-30.566a9.905 9.905 0 01-7.029 2.913 9.906 9.906 0 01-7.028-2.913l-41.608-41.601a9.938 9.938 0 010-14.057 9.938 9.938 0 0114.057 0l41.607 41.6a9.936 9.936 0 010 14.058M1237.97 987.91a9.938 9.938 0 010-14.057 9.938 9.938 0 0114.057 0l46.728 46.726a6066.427 6066.427 0 01-24.82 3.295zm-75.538-24.32c0-86.493 70.116-156.61 156.612-156.61.5 0 .995.02 1.491.037v.016l.32-.008.32.008v-.016c.496-.016.991-.037 1.491-.037 86.494 0 156.61 70.117 156.61 156.61 0 11.117-1.176 21.956-3.378 32.417a19849.7 19849.7 0 00-38.5 5.062 123.994 123.994 0 005.787-37.478c0-68.561-55.58-124.142-124.14-124.142-68.563 0-124.143 55.58-124.143 124.142 0 25.08 7.496 48.38 20.285 67.9-10.986 1.439-19.365 2.567-22.967 3.147-2.179.35-6.287.988-11.792 1.834-11.472-21.773-17.996-46.56-17.996-72.881m-2.092-165.928c11.183-11.893 24.852-20.77 24.852-20.77s-15.976 16.687-26.805 34.26c-11.957 19.407-11.006 37.279-11.006 37.279l-11.005-8.983-3.454-6.777s14.196-20.947 27.418-35.01m73.31-34.016c5.222-6.153 20.772-22.437 44.65-29.977 25.295-7.988 42.554-5.592 42.554-5.592s-31.774 2.664-57.732 24.32c-9.215 7.687-15.882 15.187-18.72 18.559a5.12 5.12 0 00-1.143 4.142l5.217 31.882-15.623-38.104c-.726-1.774-.443-3.77.797-5.23m435.306 10.565c31.974-9.176 40.592-8.62 40.592-1.391 0 7.507-28.08 2.225-56.717 14.458-21.32 9.107-57.275 35.866-57.275 35.866s41.426-39.76 73.4-48.933M533.533 910.635s-10.65-5.752 4.793-12.675c15.443-6.923 118.225-28.757 118.225-28.757zm-54.419 8.557c-3.975 4.336-9.438 5.798-12.202 3.265-2.765-2.534-1.784-8.103 2.19-12.44 3.975-4.336 9.438-5.798 12.202-3.264 2.765 2.533 1.784 8.103-2.19 12.439M586.31 665.06c-2.18 3.779-6.358 5.45-9.33 3.735-2.972-1.716-3.613-6.17-1.432-9.948 2.182-3.778 6.36-5.45 9.331-3.735 2.972 1.717 3.613 6.17 1.431 9.948m1453.794 12.693s6.657-18.906 10.385-19.971c3.727-1.065 8.255 1.598 5.858 8.787-2.396 7.19-16.243 12.515-16.243 12.515zm375.067 570.125c-16.64-4.794-82.37-16.425-98.322-19.417-30.595-5.74-101.97-13.526-107.069-16.412 22.176-17.997 42.54-36.467 63.823-53.95 20.72-17.017 39.677-35.701 56.5-56.358 6.3-7.735 5.057-11.735-4.527-14.783-12.41-3.948-40.132-5.034-87.078 3.6-46.416 9.068-73.527 5.47-124.644 12.888-4.124.599-8.137 1.51-11.379 4.302-1.176.689-1.128 2.066-1.335 3.294-.81.54-1.34 1.289-1.707 2.162-.103.032-.169.087-.287.11-.264.007-.5.088-.748.139 4.698-9.413 5.203-20.051 8.43-29.865 11.027-33.557 22.517-66.964 36.997-99.297 1.228-2.744 6.335-22.53 8.381-31.095.95.312 1.813.705 2.865.915 15.976 3.195 27.693-13.492 28.402-26.272.711-12.782-1.774-23.788-18.105-30.055-16.332-6.267-24.747 5.224-24.747 5.224l-50.157-21.987c-20.8-2.975-41.192-6.792-41.192-6.792L1963.02 851.2l112.17 16.31v-4.86c0-2.346-7.81-20.444-7.81-20.444l-170.416-44.24s-10.057 3.545-15.918-13.507c-1.823-5.302-6.537-12.632-12.62-19.984 6.555-5.868 14.781-11.371 25.177-15.344 37.748-14.428 149.634-52.418 149.634-52.418s44.606-1.362 37.1-26.627c-7.505-25.266-28.227-28.65-38.352-13.651-10.124 15-16.5 21.106-16.5 21.106s-140.06 47.259-164.557 59.577c-4.108 2.066-8.007 5.07-11.687 8.56-9.474-7.338-18.905-11.671-25.027-8.56-12.87 6.54-16.656 36.914-17.524 46.21-21.69-8.534-47.048-16.864-72.619-23.015-56.316-13.544-111.344 15.174-150.066 51.268-18.769 17.494-44.693 30.413-67.302 39.294l.734-25.305s-23.384-39.221-53.94-57.412c-30.558-18.191-45.278-14.331-45.278-14.331s-30.907-40.01-97.046-40.344v-.024c-.11 0-.21.01-.32.01-.109 0-.209-.01-.319-.01v.024c-66.139.335-97.047 40.344-97.047 40.344s-14.72-3.86-45.276 14.33c-30.557 18.192-53.94 57.413-53.94 57.413l.733 25.305c-22.609-8.881-48.534-21.8-67.302-39.294-38.723-36.094-93.75-64.812-150.067-51.268-25.57 6.15-50.928 14.48-72.618 23.016-.869-9.297-4.654-39.671-17.525-46.211-6.12-3.111-15.553 1.222-25.027 8.56-3.68-3.49-7.579-6.494-11.687-8.56-24.497-12.318-164.557-59.577-164.557-59.577s-6.375-6.106-16.5-21.106c-10.124-15-30.846-11.615-38.352 13.65-7.506 25.266 37.1 26.628 37.1 26.628s111.887 37.99 149.634 52.418c10.397 3.973 18.622 9.476 25.18 15.344-6.085 7.352-10.799 14.682-12.622 19.984-5.862 17.052-15.918 13.508-15.918 13.508l-170.415 44.239s-7.81 18.098-7.81 20.445v4.859l112.17-16.31-86.254 23.028s-20.39 3.817-41.19 6.792l-50.157 21.987s-8.417-11.491-24.748-5.224c-16.332 6.267-18.817 17.273-18.106 30.055.71 12.78 12.426 29.467 28.402 26.272 15.976-3.195 19.882-19.083 19.882-19.083s76.01-14.457 116.178-26.054c35.243-10.175 108.247-21.495 143.774-36.31 15.473 2.306 32.388 4.079 47.63 3.978 42.6-.283 54.054.783 77.628-13.99 23.573-14.774 31.788-37.031 25.123-51.07-.832-1.755-2.256-3.275-4.117-4.601 43.55-5.116 89.052 12.89 126.956 47 27.533 24.778 63.111 45.95 87.114 58.903l.35 11.998s-3.28 7.769-8.11 10.057c-4.83 2.288-12.026 15.62-12.026 15.62v18.202s-19.372 7.96-30.434 12.654c-11.063 4.693-27.256 24.345-33.326 32.93s-2.978 23.189-3.006 34.563c-.007 2.917.928 5.9 2.305 8.732-45.695 7.119-86.453 13.66-96.266 15.876-40.612 6.547-80.265 16.837-121.099 22.2-26.882 3.53-125.452 17.112-147.535 21.624-7.102 1.45-53.685 9.218-70.472 14.618-15.122 4.863-30.577 5.885-46.344 1.75-4.748-1.245-49.032-4.553-65.302-11.341-6.115-2.551-12.146-7.391-19.517-4.784l.001-.015c3.938-8.773 10.015-15.885 16.675-22.993 21.03-22.445 45.204-39.006 69.867-57.27 26.884-15.89 36.894-45.175 34.67-49.624-2.735-5.468-39.203-21.964-52.673-25.895-7.013-2.464-14.185-4.63-22.039-5.251-18.492-1.464-37.063-1.92-55.606-2.542-24.67-.827-127.694 1.245-152.634 6-26.912 5.13-54.054 9.524-80.67 16.055-5.13 1.258-9.68 8.229-6.264 11.128 5.011 4.249 7.657 10.493 15.383 12.84 21.704 6.595 43.928 11.002 65.94 16.087 16.945 3.915 33.213 9.119 50.855 15.679-9.17 7.529-18.234 13.68-26.94 19.838-28.489 20.15-56.13 41.313-84.169 62-17.58 12.973-37.04 23.519-52.812 38.888-3.47 3.383-6.46 17.7-6.675 21.438 20.396-1.218 44.081-5.647 75.168-5.371 10.615.094 68.015 3.89 86.412 6.686 13.514 2.055 26.72 5.26 39.843 9.39 25.503 8.028 49.51 18.673 70.55 34.854 4.94 3.799 9.677 5.565 15.552 5.615h.001c4.216 1.03 6.243 3.514 6.1 7.798-.157 4.742-1.29 74.406 3.173 104.468 1.165 7.849 7.126 57.518 9.702 74.448 1.84 12.084 10.597 22.845 6.103 37.563 20.445 11.392 74.653 12.076 91.784 8.957 18.482-3.365 37.464-4.203 56.321-5.53 25.002-1.755 49.911-4.578 74.827-7.197 15.968-1.678 31.961-3.358 47.787-5.881 14.61-2.33 28.98-5.912 43.506-8.715 20.96-4.044 131.38-21.941 131.38-21.941 2.993-2.82 74.247-11.56 94.646-13.77 31.41-3.403 139.93-16.472 164.208-19.455 17.924-2.201 36.052-3.216 53.735-7.027 11.654-2.511 127.24-13.001 130.613-13.175 52.086-2.691 103.618-10.14 155.051-17.827 7.49-1.12 104.801-13.846 146.358-15.53 31.655-1.284 148.087-14.27 157.075-15.132 47.596-4.568 95.17-9.282 142.196-17.88 9.857-1.802 19.665-4.928 29.88-5.03-37.272 25.344-72.276 53.847-113.096 74.253-1.102.55.906 6.35 3.04 8.199 3.056 3.157 4.2 8.644 10.671 7.536 4.04-.692 39.606-7.388 53.442-9.463 52.152-7.823 262.66-53.574 277.832-57.1 18.875-4.384 104.911-18.645 128.518-24.204 16.153-3.804 33.488-5.544 45.325-18.905.218-.245.781-.206 1.183-.3l.433-2.353c-3.843-5.144-6.032-12.02-13.078-14.05" fill="#2b0604"/><path d="M1262.416 1048.976c-1.344-12.378-8.436-19.79-20.999-22.473.46 1.65.877 3.339 1.08 5.212 1.382 12.763-2.203 23.268-10.748 31.514-8.552 8.258-21.111 13.276-37.678 15.072l-33.146 3.592-143.623 315.048c-12.152 26.573-28.227 40.928-48.226 43.102-7.569.82-14.238.22-20.062-1.71 8.066 14.625 21.369 20.985 39.985 18.967 19.998-2.174 36.073-16.53 48.226-43.102l143.622-315.044 33.143-3.593c16.567-1.796 29.125-6.814 37.678-15.071 8.544-8.247 12.13-18.751 10.748-31.514m-306.073 64.348c4.64 17.039 8.865 43.077 12.664 78.122l12.269 113.149 14.55-32.283-6.896-63.606c-3.8-35.044-8.025-61.083-12.665-78.121-4.64-17.028-11.031-30.213-19.173-39.543-5.88-6.703-12.45-12.253-19.603-16.834 7.98 9.306 14.279 22.324 18.854 39.116m-114.37 2.283c-15.813 1.717-30.401 11.538-43.775 29.464-13.381 17.93-19.152 35.368-17.316 52.32 1.51 13.911 7.044 24.532 16.61 31.874 3.006 2.308 6.283 4.124 9.774 5.552-3.371-5.729-5.616-12.376-6.461-20.166-1.837-16.952 3.934-34.39 17.314-52.32 13.375-17.926 27.962-27.747 43.776-29.463 7.244-.785 13.556-.309 19.045 1.281-.745-1.5-1.5-2.93-2.286-4.16-7.305-11.444-19.536-16.24-36.681-14.382m61.837 148.107c-3.616-5.573-9.167-9.142-16.76-10.591a38.67 38.67 0 011.574 7.46c1.385 12.763-3.992 24.086-16.12 33.972-12.126 9.894-28.095 15.909-47.904 18.057-27.072 2.935-50.765-2.44-71.117-16.028 3.214 3.536 6.592 6.953 10.332 10.105 22.373 18.868 49.276 26.59 80.707 23.184 19.809-2.15 35.779-8.163 47.906-18.057 7.81-6.368 12.78-13.341 14.987-20.902zm416.434-146.772c1.2 11.046-1.643 20.846-8.522 29.397-6.88 8.545-15.839 13.425-26.886 14.622-6.922.75-13.298-.277-19.24-2.698 2.414 4.29 5.638 8.12 9.764 11.438 8.545 6.873 18.348 9.717 29.395 8.52 11.047-1.196 20.006-6.076 26.885-14.62 6.88-8.553 9.723-18.352 8.523-29.399-1.199-11.046-6.072-20.01-14.624-26.889-3.192-2.567-6.616-4.382-10.155-5.824 2.59 4.601 4.24 9.735 4.86 15.453m36.056 251.389c-1.303-12.015-8.29-19.015-20.727-21.205.309 1.28.655 2.528.809 3.945 1.258 11.621-2 21.136-9.774 28.518-7.774 7.4-19.28 11.93-34.514 13.58l-45.43 4.927c-13.937 1.511-25.527.226-35.034-3.536 2.913 6.147 7.654 11.088 14.265 14.794 10.355 5.817 23.919 7.817 40.688 6l45.43-4.924c15.235-1.65 26.739-6.18 34.514-13.58 7.774-7.382 11.032-16.898 9.774-28.519m-41.154-123.598c3.782-13.123 5.338-22.733 4.676-28.834-.8-7.426-4.4-13.487-10.785-18.196-3.3-2.427-6.823-4.08-10.55-5.024.676 1.886 1.19 3.853 1.416 5.96.662 6.1-.895 15.71-4.676 28.833l-29.89 105.582 25.591-2.776zm296.435 72.515c.305 1.268.65 2.5.803 3.901 1.258 11.621-2.044 21.137-9.913 28.533-7.869 7.406-19.336 11.933-34.375 13.562l-38.573 4.182c-14.864 1.611-26.376-3.305-34.557-14.756-10.872 13.516-23.256 21.025-37.161 22.534l-36.288 3.934c-15.444 1.673-29.023-.81-40.783-7.35 2.344 2.985 4.844 5.826 7.636 8.393 14.239 13.098 31.925 18.508 53.065 16.217l36.289-3.934c13.904-1.509 26.289-9.018 37.161-22.533 8.18 11.45 19.693 16.366 34.557 14.755l38.573-4.18c15.038-1.63 26.506-6.157 34.375-13.564 7.869-7.396 11.17-16.91 9.912-28.532-1.299-11.966-8.286-18.95-20.721-21.162m-181.079-1.105a44.84 44.84 0 01-.993-5.76c-2.087-19.228 2.407-37.834 13.46-55.8 11.069-17.962 24.02-27.747 38.878-29.357 2.7-.293 5.219-.191 7.647.107-.724-5.495-3.623-9.964-8.767-13.336-5.294-3.48-11.555-4.818-18.8-4.032-14.856 1.61-27.808 11.395-38.876 29.358-11.054 17.966-15.548 36.57-13.461 55.799 1.602 14.77 8.577 22.426 20.912 23.02m217.159-313.279c-.822-7.622-4.378-13.73-10.66-18.355a29.298 29.298 0 00-10.654-4.942c.662 1.903 1.165 3.895 1.395 6.036.641 5.913-.065 12.73-2.109 20.464l-2.596 8.087-82.27 289.038 25.623-2.78 76.566-268.997 2.596-8.087c2.044-7.734 2.75-14.552 2.11-20.464m203.454 136.587c.574 5.337-.255 11.885-2.495 19.641l-2.305 8.059-30.122 106.176 25.604-2.777 24.437-86.14 2.305-8.058c2.24-7.755 3.07-14.304 2.494-19.642-.85-7.802-4.37-14.064-10.566-18.795-3.33-2.533-6.998-4.192-10.954-5.105.753 2.087 1.343 4.268 1.602 6.64m55.153 168.974c-1.288-11.877-8.256-18.794-20.68-20.95.284 1.204.618 2.364.76 3.69 1.259 11.613-2.035 21.176-9.896 28.677-7.854 7.498-19.315 12.065-34.354 13.697l-36.58 3.964c-16.377 1.778-28.216-3.392-35.495-15.523-12.908 14.32-26.027 22.195-39.358 23.642l-32.572 3.531c-15.181 1.646-28.633-.922-40.411-7.582 2.225 2.79 4.573 5.468 7.185 7.913 14.478 13.56 32.186 19.202 53.145 16.93l32.57-3.53c13.331-1.448 26.451-9.324 39.358-23.643 7.28 12.13 19.12 17.301 35.496 15.522l36.58-3.963c15.038-1.632 26.5-6.199 34.354-13.697 7.861-7.5 11.155-17.064 9.897-28.678m-198.639-22.299a53.631 53.631 0 01-1.98-9.725c-1.875-17.329 2.88-34.804 14.268-52.418 11.389-17.613 24.028-27.176 37.933-28.68 2.772-.302 5.385-.2 7.913.121-.022-.338-.002-.714-.037-1.039-.561-5.14-3.571-9.34-9.033-12.602-5.461-3.265-11.715-4.506-18.762-3.742-13.905 1.505-26.543 11.068-37.932 28.682-11.39 17.613-16.144 35.088-14.267 52.418 1.892 17.437 9.21 26.395 21.898 26.985" fill="#a6982d"/><path d="M1160.925 1081.893l-143.623 315.047c-12.151 26.573-28.227 40.93-48.226 43.103-28.386 3.076-44.502-13.192-48.363-48.818l-25.424-191.787c-3.778-34.856-9.323-58.007-16.635-69.45-7.305-11.443-19.537-16.239-36.681-14.38-15.814 1.715-30.402 11.536-43.776 29.463-13.38 17.93-19.151 35.368-17.315 52.32 1.51 13.911 7.044 24.532 16.61 31.874 9.567 7.345 21.587 10.235 36.067 8.665 3.425-.37 6.843-.837 10.254-1.397 3.977-.625 6.348-.985 7.112-1.065 23.046-2.502 35.612 5.88 37.699 25.114 1.385 12.763-3.993 24.086-16.12 33.973-12.125 9.894-28.096 15.908-47.904 18.057-31.431 3.406-58.335-4.317-80.708-23.184-22.38-18.865-35.335-44.597-38.866-77.169-4.254-39.234 7.977-76.17 36.696-110.782 28.718-34.626 63.366-54.138 103.937-58.534 39.235-4.254 69.742 6.018 91.51 30.838 8.142 9.33 14.534 22.515 19.174 39.543 4.64 17.04 8.865 43.077 12.664 78.122l12.269 113.148 113.013-250.739 5.81-13.065c3.87-8.697 8.415-14.79 13.633-18.246 5.214-3.45 13.439-5.792 24.678-7.01l11.113-1.49 50.279-5.455c26.478-2.869 40.71 4.836 42.695 23.126 1.382 12.762-2.203 23.267-10.748 31.514-8.552 8.258-21.111 13.275-37.678 15.072zm115.301-.359c11.039-1.197 20.843 1.64 29.395 8.52 8.55 6.878 13.424 15.841 14.625 26.888 1.199 11.046-1.644 20.845-8.524 29.398-6.88 8.544-15.84 13.424-26.886 14.62-11.046 1.197-20.85-1.647-29.394-8.519-8.552-6.88-13.424-15.843-14.624-26.889-1.2-11.047 1.643-20.846 8.523-29.398 6.872-8.552 15.83-13.425 26.885-14.62m-10.886 251.52l32.282-3.502c23.998-2.603 36.92 4.567 38.76 21.52 1.258 11.62-2 21.135-9.774 28.517-7.774 7.4-19.278 11.93-34.514 13.581l-45.43 4.926c-16.77 1.818-30.332-.185-40.687-5.999-10.363-5.814-16.181-14.625-17.461-26.435-.684-6.283.45-14.5 3.389-24.649l34.572-121.119 2.276-8.33c6.42-22.478 19.359-34.768 38.783-36.874 8-.869 15.192 1.051 21.584 5.753 6.385 4.708 9.985 10.77 10.785 18.194.662 6.102-.895 15.712-4.676 28.835zm171.013-17.101l10.857-1.178c13.142-1.426 21.243-7.599 24.29-18.533l15.7-55.178c1.965-6.763 2.764-11.865 2.393-15.29-.618-5.709-3.578-10.312-8.864-13.777-5.295-3.48-11.556-4.818-18.8-4.033-14.856 1.611-27.808 11.396-38.877 29.358-11.053 17.966-15.548 36.572-13.461 55.8 1.84 16.966 10.756 24.565 26.762 22.831m104.415-12.763l32.572-3.534c24.188-2.62 37.205 4.542 39.045 21.493 1.258 11.621-2.044 21.137-9.912 28.533-7.87 7.406-19.337 11.934-34.376 13.563l-38.572 4.181c-14.864 1.61-26.376-3.306-34.558-14.755-10.872 13.515-23.256 21.024-37.161 22.532l-36.288 3.935c-21.141 2.291-38.826-3.12-53.065-16.217-14.24-13.097-22.654-31.66-25.257-55.65-3.985-36.769 4.953-71.174 26.82-103.219 21.867-32.049 48.419-49.77 79.66-53.157 23.046-2.498 42.324 3.79 57.836 18.875l46.768-163.192c7.97-27.845 21.664-42.818 41.095-44.924 8.189-.887 15.424.975 21.707 5.592 6.284 4.625 9.84 10.734 10.662 18.355.639 5.913-.066 12.73-2.11 20.465l-2.595 8.086zm171.872-17.194l7.148-.775c15.614-1.69 25.3-9.195 29.067-22.515l14.632-51.6c1.97-6.76 2.713-12.33 2.24-16.722-.561-5.141-3.571-9.341-9.032-12.603-5.462-3.265-11.716-4.505-18.763-3.742-13.904 1.506-26.543 11.069-37.932 28.682-11.388 17.613-16.144 35.089-14.267 52.419 2.13 19.627 11.096 28.572 26.907 26.856m103.556-12.668l31.43-3.411c24.006-2.6 36.907 4.483 38.725 21.246 1.258 11.613-2.036 21.176-9.898 28.678-7.853 7.497-19.314 12.064-34.353 13.697l-36.58 3.963c-16.377 1.778-28.216-3.392-35.495-15.522-12.908 14.319-26.028 22.195-39.358 23.642l-32.572 3.53c-20.96 2.273-38.666-3.37-53.145-16.93-14.48-13.558-23.032-32.43-25.65-56.624-3.971-36.573 5.106-70.658 27.213-102.251 22.107-31.591 49.065-49.114 80.882-52.56 24.376-2.647 43.102 3.898 56.185 19.634 7.97-15.322 19.679-23.816 35.103-25.49 8.378-.908 15.664 1.005 21.867 5.725 6.196 4.73 9.716 10.99 10.568 18.795.574 5.338-.255 11.886-2.496 19.642l-2.304 8.057zm767.984 211.37v-21.81h-.202v-104.497l.201.022v126.285" fill="#f5e02c"/></g></svg>