<?xml version="1.0" encoding="UTF-8" standalone="no"?>
<!-- Created with Inkscape (http://www.inkscape.org/) -->

<svg
   width="808.9361mm"
   height="291.18359mm"
   viewBox="0 0 808.9361 291.18359"
   version="1.1"
   id="svg5003"
   inkscape:version="1.1.2 (b8e25be8, 2022-02-05)"
   sodipodi:docname="faixaamarela.svg"
   xmlns:inkscape="http://www.inkscape.org/namespaces/inkscape"
   xmlns:sodipodi="http://sodipodi.sourceforge.net/DTD/sodipodi-0.dtd"
   xmlns="http://www.w3.org/2000/svg"
   xmlns:svg="http://www.w3.org/2000/svg">
  <sodipodi:namedview
     id="namedview5005"
     pagecolor="#ffffff"
     bordercolor="#666666"
     borderopacity="1.0"
     inkscape:pageshadow="2"
     inkscape:pageopacity="0.0"
     inkscape:pagecheckerboard="0"
     inkscape:document-units="mm"
     showgrid="false"
     fit-margin-top="0"
     fit-margin-left="0"
     fit-margin-right="0"
     fit-margin-bottom="0"
     inkscape:zoom="1.6446139"
     inkscape:cx="-63.54075"
     inkscape:cy="888.05038"
     inkscape:window-width="1920"
     inkscape:window-height="1027"
     inkscape:window-x="0"
     inkscape:window-y="25"
     inkscape:window-maximized="1"
     inkscape:current-layer="layer1" />
  <defs
     id="defs5000" />
  <g
     inkscape:label="Camada 1"
     inkscape:groupmode="layer"
     id="layer1"
     transform="translate(280.73582,-2.908213)">
    <path
       d="m 528.20026,3.1405601 -808.74929,-0.2323471 -0.18679,291.183587 36.76756,-12.5529 36.73475,12.5529 36.76085,-12.5529 36.74816,12.5529 36.748154,-12.5529 36.741452,12.5529 36.735455,-12.5529 36.716051,12.5529 36.735808,-12.5529 36.741099,12.5529 36.742161,-12.5529 36.74145,12.5529 36.74251,-12.5529 36.72875,12.5529 36.7411,-12.5529 36.7291,12.5529 36.72911,-12.5529 36.72275,12.5529 36.72876,-12.5529 36.71675,12.5529 36.72911,-12.5529 37.36591,12.5529 z"
       fill="#f2f09e"
       id="path1461"
       style="stroke-width:0.352778"
       sodipodi:nodetypes="cccccccccccccccccccccccccc" />
    <path
       d="m 528.20026,3.1405601 -808.74929,-0.2323471 -0.18679,284.201407 36.76756,-12.55289 36.73475,12.55289 36.76085,-12.55289 36.74816,12.55289 36.748154,-12.55289 36.741452,12.55289 36.735455,-12.55289 36.716051,12.55289 36.735808,-12.55289 36.741099,12.55289 36.742161,-12.55289 36.74145,12.55289 36.74251,-12.55289 36.72875,12.55289 36.7411,-12.55289 36.7291,12.55289 36.72911,-12.55289 36.72275,12.55289 36.72876,-12.55289 36.71675,12.55289 36.72911,-12.55289 37.36591,12.23113 z"
       fill="#f5e02c"
       id="path1463"
       style="stroke-width:0.352778"
       sodipodi:nodetypes="cccccccccccccccccccccccccc" />
  </g>
</svg>
