<?xml version="1.0" encoding="UTF-8" standalone="no"?>
<!-- Created with Inkscape (http://www.inkscape.org/) -->

<svg
   width="880.34009mm"
   height="176.93297mm"
   viewBox="0 0 880.34008 176.93298"
   version="1.1"
   id="svg1886"
   inkscape:version="1.1.2 (b8e25be8, 2022-02-05)"
   sodipodi:docname="header_ink.svg"
   xmlns:inkscape="http://www.inkscape.org/namespaces/inkscape"
   xmlns:sodipodi="http://sodipodi.sourceforge.net/DTD/sodipodi-0.dtd"
   xmlns="http://www.w3.org/2000/svg"
   xmlns:svg="http://www.w3.org/2000/svg">
  <sodipodi:namedview
     id="namedview1888"
     pagecolor="#ffffff"
     bordercolor="#666666"
     borderopacity="1.0"
     inkscape:pageshadow="2"
     inkscape:pageopacity="0.0"
     inkscape:pagecheckerboard="true"
     inkscape:document-units="mm"
     showgrid="false"
     fit-margin-top="0"
     fit-margin-left="0"
     fit-margin-right="0"
     fit-margin-bottom="0"
     inkscape:zoom="1.9446927"
     inkscape:cx="3526.2642"
     inkscape:cy="668.74321"
     inkscape:window-width="1920"
     inkscape:window-height="1027"
     inkscape:window-x="0"
     inkscape:window-y="25"
     inkscape:window-maximized="1"
     inkscape:current-layer="layer1"
     width="879.99042mm" />
  <defs
     id="defs1883">
    <clipPath
       id="clip_291">
      <path
         transform="matrix(1,0,0,-1,0,3467.57)"
         d="m 32.999,3434.554 v -489.78 l 78.531,26.792 104.312,-35.583 104.223,35.583 104.129,-35.583 104.204,35.583 104.169,-35.583 104.167,35.583 104.149,-35.583 104.132,35.583 104.077,-35.583 104.134,35.583 104.148,-35.583 104.15,35.583 104.149,-35.583 104.153,35.583 104.112,-35.583 104.149,35.583 104.114,-35.583 104.114,35.583 104.094,-35.583 104.114,35.583 104.08,-35.583 104.114,35.583 104.094,-35.583 77.166,26.391 0.202,472.18 z"
         id="path428" />
    </clipPath>
  </defs>
  <g
     inkscape:label="Camada 1"
     inkscape:groupmode="layer"
     id="layer1"
     transform="translate(268.21437,-77.18204)">
    <path
       d="m 613.41293,76.50177 -882.44316,-0.270108 -0.54468,178.703398 35.71026,-14.4223 36.7986,12.55289 36.76756,-12.55289 36.73475,12.55289 36.760854,-12.55289 36.748155,12.55289 36.748155,-12.55289 36.741452,12.55289 36.735455,-12.55289 36.716051,12.55289 36.735808,-12.55289 36.7411,12.55289 36.74216,-12.55289 36.74145,12.55289 36.74251,-12.55289 36.72875,12.55289 36.7411,-12.55289 36.7291,12.55289 36.72911,-12.55289 36.72275,12.55289 36.72876,-12.55289 36.71675,12.55289 36.72911,-12.55289 39.88772,14.55463 z"
       fill="#2b0604"
       id="path1458"
       style="stroke-width:0.352778"
       sodipodi:nodetypes="cccccccccccccccccccccccccccc" />
    <g
       clip-path="url(#clip_291)"
       id="g1662"
       transform="matrix(0.35277777,0,0,0.35277777,-273.20995,65.533614)">
      <path
         transform="matrix(1,0,0,-1,899.9395,579.35379)"
         d="M 0,0 C -2.986,0 -6.303,-0.262 -9.965,-0.648 L -31.537,-2.92 c -7.599,-0.797 -11.701,-5.238 -11.11,-13.206 l 2.242,-30.263 c 0.512,-6.924 4.521,-10.799 11.005,-10.799 0.605,0 1.229,0.034 1.877,0.102 l 21.571,2.272 c 19.181,2.022 28.596,5.445 26.765,30.13 C 19.333,-4.712 12.655,0 0,0 m 0,-7 c 6.187,0 8.267,-1.332 9.484,-2.634 2.303,-2.461 3.766,-7.699 4.348,-15.568 1.032,-13.913 -2.215,-16.924 -3.282,-17.913 -2.948,-2.735 -9.023,-3.872 -17.236,-4.738 l -21.57,-2.272 c -0.398,-0.042 -0.783,-0.063 -1.144,-0.063 -2.099,0 -3.728,0.318 -4.024,4.316 l -2.243,30.263 c -0.298,4.016 0.793,5.3 4.862,5.727 l 21.574,2.273 C -5.231,-7.188 -2.385,-7 0,-7"
         fill="#4e3120"
         id="path1658" />
      <path
         stroke-width="7"
         stroke-linecap="round"
         stroke-linejoin="round"
         fill="none"
         stroke="#4e3120"
         d="m 1929.708,496.161 -8.551,0.927 -3.568,7.826 -216.51,474.931 c -16.079,35.16 -35.901,53.557 -60.59,56.241 -2.847,0.309 -5.616,0.465 -8.227,0.465 -17.797,0 -42.139,-6.288 -48.078,-61.025 L 1545.9,686.757 c -6.005,-55.41 -14.958,-91.786 -27.363,-111.2 -8.517,-13.341 -25.431,-29.245 -57.641,-29.246 -3.845,0 -7.889,0.227 -12.023,0.676 -28.065,3.046 -53.795,20.004 -76.472,50.401 -22.432,30.061 -32.195,60.186 -29.015,89.542 2.727,25.135 13.111,44.786 30.86,58.405 14.53,11.157 32.154,16.813 52.388,16.813 4.138,0 8.451,-0.24 12.808,-0.713 5.44,-0.589 10.868,-1.328 16.181,-2.2 5.502,-0.865 8.822,-1.382 10.006,-1.512 3.436,-0.372 6.708,-0.561 9.725,-0.561 23.022,0 28.827,10.006 30.457,25.032 0.962,8.884 0.061,22.475 -18.832,37.877 -15.881,12.958 -37.514,21.003 -64.296,23.907 -6.68,0.725 -13.288,1.091 -19.646,1.091 -35.013,0 -64.664,-10.653 -90.655,-32.572 -30.938,-26.077 -48.376,-60.885 -53.312,-106.412 -6.008,-55.433 10.976,-106.373 51.928,-155.733 41.069,-49.515 89.051,-76.621 146.691,-82.867 8.081,-0.876 15.989,-1.321 23.505,-1.321 43.042,0 76.232,13.984 101.437,42.723 10.703,12.265 19.353,30.316 25.713,53.648 6.761,24.834 13.036,63.669 18.648,115.431 l 18.495,170.575 5.984,55.192 22.813,-50.611 170.402,-378.067 8.76,-19.696 c 4.562,-10.257 9.78,-17.534 15.084,-21.047 3.991,-2.641 12.524,-6.2 30.873,-8.194 l 16.372,-2.201 75.797,-8.222 c 4.851,-0.525 9.429,-0.792 13.603,-0.793 27.857,0 32.859,10.701 34.115,22.26 1.586,14.667 -2.123,25.793 -11.677,35.014 -10.354,9.995 -26.481,16.243 -47.935,18.57 z m -807.618,353.701 -19.182,2.022 c -7.598,0.796 -11.7,5.252 -11.11,13.205 l 4.736,63.713 c 0.59,7.967 -3.113,12.379 -11.11,13.22 l -44.752,4.707 c -7.599,0.797 -12.32,-3.113 -12.881,-10.683 l -18.901,-254.45 c -0.591,-7.968 3.113,-12.38 11.081,-13.619 l 87.925,-9.252 c 71.133,-7.495 102.164,19.728 107.003,85.034 4.855,65.335 -21.675,98.608 -92.809,106.103 z M 928.99802,544.935 c -3.13,0.505 -6.245,1.14 -9.369,1.707 -18.19,2.823 -32.856,5.259 -40.983,6.918 -5.166,1.057 -23.419,4.211 -44.291,8.139 l -0.069,0.01 v 0.003 c -25.038,4.714 -53.834,10.544 -68.485,15.257 -24.214,7.788 -48.961,9.423 -74.209,2.802 -7.605,-1.993 -78.515,-7.291 -104.571,-18.159 -9.79,-4.086 -19.447,-11.836 -31.251,-7.663 v -0.024 c 6.307,-14.047 16.038,-25.435 26.702,-36.817 33.674,-35.943 72.386,-62.461 111.88,-91.706 43.047,-25.444 59.076,-72.34 55.515,-79.463 -4.378,-8.756 -62.774,-35.171 -84.345,-41.465 -11.228,-3.947 -22.713,-7.416 -35.292,-8.41 -29.61,-2.343 -59.348,-3.074 -89.043,-4.07 -12.407,-0.417 -37.205,-0.374 -66.606,0.115 46.3,-11.711 124.988,-24.805 165.056,-41.512 19.052,2.838 39.875,5.021 58.641,4.897 52.45,-0.349 66.549,0.963 95.573,-17.225 29.023,-18.18801 39.137,-45.59001 30.931,-62.87501 -1.025,-2.159 -2.777,-4.032 -5.069,-5.665 53.617,-6.298 109.637,15.871 156.30299,57.86701 33.89799,30.504 77.70199,56.571 107.25299,72.518 l 0.427,14.772 c 0,0 -4.035,9.564 -9.981,12.381 -5.95,2.817 -14.807,19.232 -14.807,19.232 v 22.409 c 0,0 -23.849,9.799 -37.469,15.579 -13.621,5.778 -33.55799,29.973 -41.02999,40.541 -7.472,10.571 -3.666,28.55 -3.701,42.552 -0.022,9.217 7.437,18.923 12.578,24.545 l -0.01,0.013 0.111,0.098 c 2.615,2.849 4.651,4.693 4.651,4.693 h 0.66 c 7.66499,6.731 22.14099,19.268 34.26499,28.697 4.049,3.149 11.365,4.974 20.13,5.961 -23.929,3.315 -47.785,6.642 -70.73599,9.857 -23.7,2.823 -42.29699,1.895 -49.36299,3.491 z m 23.85199,411.045 -44.76699,4.722 c -7.584,0.796 -12.306,-3.128 -12.866,-10.698 l -11.656,-156.89 c -0.207,-2.788 -3.823,-2.803 -4.427,0.045 l -26.957,162.983 c -1.108,6.95 -5.224,10.993 -12.424,11.746 l -26.383,2.788 c -7.185,0.753 -11.848,-2.375 -13.943,-8.971 l -50.566,-154.824 c -1.017,-2.686 -4.574,-1.904 -4.367,0.885 l 11.642,156.89 c 0.56,7.569 -3.114,12.365 -11.096,13.206 l -44.752,4.721 c -7.997,0.842 -12.32,-3.128 -12.881,-10.697 l -18.93,-254.849 c -0.591,-7.967 3.113,-12.364 11.11,-13.206 l 82.731,-8.72 c 7.186,-0.752 11.48,2.819 13.575,9.414 l 36.976,112.891 c 1.107,3.91 4.309,3.571 4.795,-0.517 l 19.772,-118.851 c 1.107,-6.95 4.795,-11.347 11.996,-12.099 l 82.716,-8.721 c 7.998,-0.841 12.29099,2.73 12.88099,10.698 l 18.916,254.848 c 0.561,7.555 -3.113,12.365 -11.095,13.206 z M 356.50302,296.116 c -1.682,0.094 -3.358,0.189 -5.003,0.286 -2.772,-2.151 -7.771,-7.925 7.257,-14.662 19.013,-8.523 145.555,-35.406 145.555,-35.406 z M 1124.558,158.25899 c 13.768,-14.642 30.596,-25.57 30.596,-25.57 0,0 -19.669,20.543 -33.002,42.18 -14.721,23.892 -13.548,45.895 -13.548,45.895 l -13.551,-11.06 -4.251,-8.344 c 0,0 17.477,-25.789 33.756,-43.101 z M 1304.964,442.699 c 4.78,4.781 4.78,12.525 0,17.306 -2.391,2.39 -5.523,3.586 -8.654,3.586 -3.132,0 -6.264,-1.196 -8.654,-3.586 l -67.522,-67.52 c -4.781,-4.782 -4.781,-12.526 0,-17.307 4.78,-4.781 12.522,-4.781 17.303,0 z m 70.262,-7.434 c 4.78,4.78 4.78,12.525 0,17.306 -2.391,2.39 -5.523,3.586 -8.655,3.586 -3.13,0 -6.261,-1.196 -8.651,-3.586 L 1246.394,341.043 c -4.781,-4.78 -4.781,-12.526 0,-17.306 4.78,-4.781 12.527,-4.781 17.307,0 z m 31.075,-46.629 c 4.781,4.781 4.781,12.526 0,17.306 -2.39,2.391 -5.522,3.586 -8.654,3.586 -3.131,0 -6.263,-1.195 -8.654,-3.586 l -88.844,-88.843 c -4.78,-4.78 -4.78,-12.525 0,-17.306 4.782,-4.781 12.528,-4.781 17.308,0 z m 22.763,-37.633 c -2.39,2.39 -5.522,3.585 -8.653,3.585 -3.132,0 -6.264,-1.195 -8.654,-3.585 l -51.226,-51.217 c -4.781,-4.782 -4.781,-12.526 0,-17.307 4.781,-4.781 12.528,-4.781 17.308,0 l 51.225,51.218 c 4.781,4.781 4.781,12.526 0,17.306 z M 1319.947,169.72899 c 0.616,0 1.225,0.026 1.837,0.046 v 0.021 c 0.129,-0.003 0.262,-0.008 0.392,-0.01 0.133,0.002 0.261,0.007 0.394,0.01 v -0.021 c 0.613,-0.02 1.221,-0.046 1.837,-0.046 106.488,0 192.814,86.32701 192.814,192.81301 0,32.211 -8.083,62.452 -22.075,89.118 -4.575,-0.327 -9.18,-0.605 -13.952,-0.605 -8.093,0 -16.476,0.47 -25.133,1.409 -4.907,0.531 -9.658,1.455 -14.45,2.28 19.511,-25.615 31.174,-57.501 31.174,-92.2 0,-84.41 -68.428,-152.83901 -152.838,-152.83901 -84.409,0 -152.84,68.42901 -152.84,152.83901 0,63.383 38.588,117.744 93.547,140.901 -17.781,2.141 -39.274,4.878 -63.18,8.014 -42.949,-35.364 -70.341,-88.938 -70.341,-148.917 0,-106.486 86.324,-192.81301 192.814,-192.81301 z m -105.133,-53.351 c 6.428,-7.574 25.575,-27.622998 54.97,-36.905998 31.144,-9.834 52.392,-6.884 52.392,-6.884 0,0 -39.119,3.279 -71.077,29.939998 -11.345,9.465 -19.553,18.698 -23.047,22.85 -1.196,1.421 -1.706,3.267 -1.408,5.099 l 6.422,39.252 -19.233,-46.911 c -0.895,-2.184 -0.546,-4.642 0.981,-6.44 z M 289.04302,303.037 c -6.643,1.246 -13.29,2.484 -19.944,3.705 0.042,-3.187 1.461,-6.913 4.433,-10.158 4.894,-5.339 11.619,-7.139 15.023,-4.019 2.425,2.223 2.414,6.354 0.488,10.472 z m 128.79,-308.035004 c -2.686,4.65199997 -7.828,6.71 -11.487,4.59799997 -3.658,-2.11299997 -4.447,-7.59499997 -1.761,-12.24699997 2.686,-4.652 7.829,-6.71 11.488,-4.598 3.657,2.113 4.446,7.595 1.76,12.247 z M 1750.746,129.38499 c 39.366,-11.296 49.978,-10.611 49.978,-1.712 0,9.243 -34.574,2.738 -69.83,17.8 -26.248,11.213 -70.515,44.157 -70.515,44.157 0,0 51.003,-48.949 90.367,-60.245 z M 2207.69,10.628996 c 0,0 8.197,-23.276 12.789,-24.587 4.587,-1.311 10.162,1.967 7.212,10.818 -2.951,8.851 -20.001,15.407 -20.001,15.407 z M 1833.621,462.751 c -59.017,4.669 -123.468,9.549 -167.748,12.865 1.021,-2.657 1.776,-5.36 1.77,-8.036 -0.034,-14.002 3.773,-31.981 -3.701,-42.552 -7.473,-10.568 -27.407,-34.763 -41.03,-40.541 -13.619,-5.78 -37.469,-15.579 -37.469,-15.579 v -22.409 c 0,0 -8.858,-16.415 -14.804,-19.232 -5.947,-2.817 -9.986,-12.381 -9.986,-12.381 l 0.43,-14.772 c 29.553,-15.947 73.354,-42.014 107.253,-72.518 46.666,-41.99601 102.685,-64.16501 156.304,-57.86701 -2.291,1.633 -4.043,3.506 -5.069,5.665 -8.208,17.285 1.907,44.687 30.93,62.87501 29.023,18.188 43.125,16.876 95.572,17.225 18.765,0.124 39.591,-2.059 58.64,-4.897 43.741,18.238 133.622,32.177 177.011,44.703 49.453,14.278 143.033,32.076 143.033,32.076 0,0 4.808,19.56 24.478,23.495 19.669,3.933 34.096,-16.61 34.97,-32.346 0.874,-15.736 -2.187,-29.285 -22.295,-37.003 -20.107,-7.715 -30.466,6.432 -30.466,6.432 l -61.749,-27.069 c -25.611,-3.663 -50.716,-8.363 -50.716,-8.363 L 2112.788,224.17299 2250.89,244.251 v -5.982 c 0,-2.888 -9.619,-25.17101 -9.619,-25.17101 l -209.809,-54.464 c 0,0 -12.381,4.363 -19.596,-16.631 -2.243,-6.529 -8.049,-15.553 -15.539,-24.603 8.072,-7.226 18.198,-14 30.998,-18.891998 46.475,-17.763 184.224,-64.535 184.224,-64.535 0,0 54.917,-1.677 45.677,-32.782996 -9.241,-31.106 -34.754,-35.273 -47.219,-16.805 -12.464,18.467 -20.314,25.984 -20.314,25.984 0,0 -172.436,58.183996 -202.593,73.348996 -5.06,2.543 -9.861,6.243 -14.392,10.539 -11.662,-9.035 -23.274,-14.369 -30.811,-10.539 -15.846,8.053 -20.509,45.446998 -21.575,56.893998 -26.703,-10.509 -57.925,-20.766 -89.408,-28.337 -69.332,-16.675998 -137.082,18.683 -184.755,63.119 -23.106,21.538 -55.025,37.444 -82.861,48.377 l 0.904,-31.154 c 0,0 -28.789,-48.288 -66.409,-70.684 -37.621,-22.394998 -55.744,-17.644 -55.744,-17.644 0,0 -38.052,-49.255998 -119.479,-49.668998 v -0.031 c -0.136,0 -0.258,0.015 -0.394,0.015 -0.133,0 -0.257,-0.015 -0.392,-0.015 v 0.031 c -81.429,0.413 -119.482,49.668998 -119.482,49.668998 0,0 -18.123,-4.750998 -55.742,17.644 -37.621,22.396 -66.41,70.684 -66.41,70.684 l 0.903,31.154 c -27.836,-10.933 -59.751,-26.839 -82.85999,-48.377 -47.674,-44.436 -115.42299,-79.794998 -184.75599,-63.119 -31.482,7.571 -62.702,17.828 -89.405,28.337 -1.069,-11.447 -5.728,-48.840998 -21.575,-56.893998 -7.536,-3.83 -19.148,1.504 -30.812,10.539 -4.532,-4.296 -9.333,-7.996 -14.39,-10.539 -30.159,-15.165 -202.596,-73.348996 -202.596,-73.348996 0,0 -7.847,-7.517 -20.313,-25.984 -12.467,-18.468 -37.978,-14.301 -47.218,16.805 -9.241,31.105996 45.678,32.782996 45.678,32.782996 0,0 137.749,46.772 184.221,64.535 12.8,4.891998 22.928,11.665998 30.998,18.891998 -7.487,9.05 -13.294,18.074 -15.537,24.603 -7.217,20.994 -19.597,16.631 -19.597,16.631 l -209.81,54.464 c 0,0 -9.616,22.28301 -9.616,25.17101 v 5.982 l 138.099,-20.07801 -106.19,28.34901 c 0,0 -25.107,4.7 -50.715,8.363 l -61.749,27.069 c 0,0 -10.362,-14.147 -30.47,-6.432 -15.61,5.993 -20.892,15.525 -22.089,26.843 -31.052,5.689 -62.12,11.429 -92.75,18.944 -8.215,2.016 -15.502,13.177 -10.031,17.82 8.024,6.805 12.262,16.803 24.632,20.562 34.756,10.56 70.343,17.616 105.589,25.759 27.135,6.27 53.187,14.603 81.435,25.108 -14.683,12.056 -29.199,21.905 -43.14,31.767 -45.619,32.267 -89.88,66.153 -134.779,99.281 -28.15,20.773 -59.312,37.66 -84.566,62.27 -5.558,5.417 -10.346002,28.345 -10.689002,34.328 32.660002,-1.95 70.586002,-9.041 120.367002,-8.601 16.998,0.15 108.911,6.23 138.373,10.708 21.638,3.289 42.786,8.423 63.799,15.037 248.8417,21.01201 79.726,29.91565 112.97,55.809 7.912,6.084 15.497,8.912 24.904,8.993 v -10e-4 c 6.751,1.65 9.997,5.628 9.768,12.487 -0.251,7.594 -2.066,119.146 5.079,167.286 1.867,12.568 11.414,92.104 15.538,119.213 2.943,19.35 16.967,36.581 9.771,60.149 32.739,18.243 119.541,19.337 146.975,14.344 29.594,-5.389 59.979,-6.895 90.188,-8.854 31.384,-2.035 59.951,-4.752 95.849,-8.781 0.45,0.182 0.724,0.297 0.724,0.297 5.799,-0.412 16.19999,-1.787 29.00499,-3.666 62.54699,-1.594 127.21799,-1.823 186.91999,-10.745 11.99,-1.793 156.116,-10.217 222.661,-12.915 39.688,-1.609 162.568,-14.704 220.958,-20.975 10.43,11.707 24.501,17.671 42.359,17.671 3.167,0 6.455,-0.185 9.856,-0.552 18.779,-2.043 35.263,-11.225 49.451,-27.532 52.428,-5.538 104.728,-11.99 156.601,-21.474 15.78,-2.884 31.487,-7.891 47.843,-8.052 -59.682,40.581 -115.735,86.224 -181.096,118.9 -1.767,0.882 1.448,10.169 4.865,13.128 4.894,5.055 6.724,13.843 17.089,12.069 6.468,-1.109 63.421,-11.832 85.577,-15.155 83.51,-12.526 420.594,-85.787 444.892,-91.432 30.223,-7.023 167.993,-29.858 205.798,-38.759 25.861,-6.092 53.623,-8.878 72.576,-30.272 0.35,-0.393 1.25,-0.329 1.893,-0.48 0.231,-1.256 0.463,-2.513 0.694,-3.769 -6.155,-8.238 -9.658,-19.247 -20.939,-22.497 -26.651,-7.678 -131.902,-26.301 -157.443,-31.093 -48.994,-9.191 -163.291,-21.659 -171.452,-26.279 35.51,-28.82 68.118,-58.396 102.203,-86.39 33.175,-27.25 63.531,-57.168 90.474,-90.247 10.085,-12.386 8.092,-18.791 -7.252,-23.673 -19.875,-6.321 -64.264,-8.06 -139.439,5.766 -74.325,14.52 -117.738,8.761 -199.592,20.637 -6.604,0.959 -13.028,2.42 -18.221,6.888 -3.476,2.039 -0.215,7.867 -5.331,8.915 -0.42,0.011 -0.8,0.139 -1.197,0.222 7.523,-15.074 8.333,-32.107 13.497,-47.824 17.661,-53.735 36.06,-107.229 59.244,-159.005 2.36,-5.268 13.681,-49.9 14.725,-55.553 2.755,-14.917 -0.631,-26.779 -19.37,-31.415 -10.938,4.977 -21.953,9.643 -33.858,12.194 -0.073,-1.156 0.089,-2.207 -0.039,-3.39 -2.588,-23.833 -18.964,-35.744 -49.14,-35.743 -4.732,10e-4 -9.811,0.294 -15.224,0.881 l -75.799,8.222 -16.751,2.247 c -16.945,1.837 -29.342,5.367 -37.204,10.569 -7.866,5.207 -14.717,14.394 -20.549,27.507"
         id="path1660"
         sodipodi:nodetypes="cccccscccsccccscccscccsccccscccccccsccccccccccccccccccccccccccccccccccccccccccscccccccccccccccscccccccccccccccccccccccccccccccccccccccccccccscccccccscccccccsccccccsccscccscccccsscsccsssccssccccscccccccccscscscscccccccccccccccccccccscccccsccccccscccccccscccccccccccccscccscccccccccccccccccscccccccccccccccccccccccccccsccccscscccccccccccccsccccccccccccsccccccccc" />
    </g>
  </g>
</svg>
