<?xml version="1.0" encoding="UTF-8" standalone="no"?>
<!-- Created with Inkscape (http://www.inkscape.org/) -->

<svg
   width="850.37128mm"
   height="475.44284mm"
   viewBox="0 0 850.37128 475.44284"
   version="1.1"
   id="svg6474"
   inkscape:version="1.1.2 (b8e25be8, 2022-02-05)"
   sodipodi:docname="logao.svg"
   xmlns:inkscape="http://www.inkscape.org/namespaces/inkscape"
   xmlns:sodipodi="http://sodipodi.sourceforge.net/DTD/sodipodi-0.dtd"
   xmlns="http://www.w3.org/2000/svg"
   xmlns:svg="http://www.w3.org/2000/svg">
  <sodipodi:namedview
     id="namedview6476"
     pagecolor="#ffffff"
     bordercolor="#666666"
     borderopacity="1.0"
     inkscape:pageshadow="2"
     inkscape:pageopacity="0.0"
     inkscape:pagecheckerboard="0"
     inkscape:document-units="mm"
     showgrid="false"
     fit-margin-top="0"
     fit-margin-left="0"
     fit-margin-right="0"
     fit-margin-bottom="0"
     inkscape:zoom="0.47749719"
     inkscape:cx="1606.2922"
     inkscape:cy="897.38747"
     inkscape:window-width="1463"
     inkscape:window-height="969"
     inkscape:window-x="0"
     inkscape:window-y="25"
     inkscape:window-maximized="0"
     inkscape:current-layer="layer1" />
  <defs
     id="defs6471">
    <clipPath
       id="clip_292">
      <path
         transform="matrix(1,0,0,-1,0,3467.57)"
         d="M 0,3467.57 H 2617.18 V 0 H 0 Z"
         id="path438" />
    </clipPath>
  </defs>
  <g
     inkscape:label="Camada 1"
     inkscape:groupmode="layer"
     id="layer1"
     transform="translate(320.18284,89.221425)">
    <g
       clip-path="url(#clip_292)"
       id="g1807"
       transform="matrix(0.35277777,0,0,0.35277777,-381.45265,-212.7001)">
      <path
         transform="matrix(1,0,0,-1,1971.9102,1023.8743)"
         d="m 0,0 c 0,-372.161 -301.695,-673.856 -673.856,-673.856 -372.161,0 -673.857,301.695 -673.857,673.856 0,372.161 301.696,673.856 673.857,673.856 C -301.695,673.856 0,372.161 0,0"
         fill="#f2f09e"
         id="path1671" />
      <path
         transform="matrix(1,0,0,-1,408.1943,677.15408)"
         d="m 0,0 c 3.311,15.645 6.449,26.161 20.619,37.213 26.627,20.769 65.503,23.699 65.503,23.699 0,0 -31.154,-8.788 -53.521,-27.427 -43.164,-35.969 -9.852,-86.006 -20.503,-74.29 -2.348,2.583 -4.463,5.088 -6.334,7.424 C -1.757,-23.989 -2.491,-11.771 0,0 m 80.989,-90.671 c 66.086,-14.131 112.532,-5.169 146.402,11.535 1.705,0.842 3.245,1.752 4.759,2.672 l -55.347,25.485 c 0,0 -54.245,-7.456 -56.149,33.018 -1.903,40.473 35.848,43.503 36.497,44.113 0.651,0.61 17.753,-0.503 28.552,-15.651 10.799,-15.148 12.397,-19.04 12.397,-19.04 l 58.86,-23.506 c 0.832,8.959 0.724,17.793 1.336,25.514 1.822,23.017 0.515,52.475 -39.154,80.697 C 179.474,102.387 52.183,69.376 23.714,56.106 -4.755,42.837 -13.484,15.057 -13.484,15.057 -31.756,-53.642 14.904,-76.541 80.989,-90.671"
         fill="#f2f09e"
         id="path1673" />
      <path
         transform="matrix(1,0,0,-1,1971.0654,633.81716)"
         d="M 0,0 C 12.78,18.639 31.42,31.953 47.396,32.485 63.372,33.018 69.61,22.268 52.899,22.545 20.769,23.077 -12.781,-18.639 0,0 m -25.018,-75.382 58.86,23.506 c 0,0 1.597,3.892 12.397,19.041 10.799,15.148 27.902,16.26 28.551,15.65 0.649,-0.61 38.401,-3.64 36.498,-44.113 -1.903,-40.473 -56.148,-33.018 -56.148,-33.018 l -55.349,-25.485 c 1.516,-0.92 3.056,-1.83 4.761,-2.672 33.869,-16.704 80.315,-25.666 146.401,-11.536 66.085,14.131 112.745,37.03 94.474,105.729 0,0 -8.73,27.78 -37.198,41.05 C 179.76,26.039 52.469,59.05 12.801,30.829 -26.868,2.607 -28.177,-26.851 -26.354,-49.868 c 0.612,-7.721 0.503,-16.555 1.336,-25.514"
         fill="#f2f09e"
         id="path1675" />
      <path
         transform="matrix(1,0,0,-1,1937.1602,973.95486)"
         d="M 0,0 C -1.558,21.24 -4.164,42.189 -7.765,62.796 20.187,56.615 48.417,51.059 66.6,45.81 101.133,35.839 162.114,23.764 178.555,20.57 174.245,18.906 169.835,17.493 165.169,16.687 150.246,14.107 135.05,13.358 120.156,10.384 113.117,8.979 55.664,4.312 0,0 m -88.794,-373.408 v 0 c 2.232,0.976 4.326,2.064 6.268,3.277 -1.942,-1.213 -4.036,-2.301 -6.268,-3.277 m -1256.435,196.234 c -15.122,-4.863 -30.577,-5.885 -46.343,-1.75 -4.748,1.245 -49.032,4.553 -65.303,11.341 -6.114,2.551 -12.146,7.391 -19.517,4.784 l 10e-4,0.015 c 3.938,8.773 10.015,15.885 16.676,22.993 21.029,22.445 45.203,39.006 69.866,57.27 26.884,15.889 36.894,45.175 34.669,49.624 -2.734,5.468 -39.202,21.964 -52.672,25.895 -7.011,2.464 -14.185,4.629 -22.039,5.251 -13.332,1.055 -26.705,1.585 -40.079,2.033 1.361,-0.017 2.759,0.104 4.193,0.391 15.976,3.195 19.881,19.083 19.881,19.083 0,0 76.011,14.457 116.178,26.054 18.184,5.25 46.42,10.806 74.374,16.988 -6.231,-35.654 -9.489,-72.33 -9.489,-109.769 0,-38.277 3.395,-75.76 9.903,-112.166 -8.687,-1.379 -15.636,-2.562 -19.827,-3.418 -7.1,-1.451 -53.683,-9.219 -70.472,-14.619 m -140.272,209.501 c -2.765,2.534 -1.783,8.103 2.19,12.44 3.976,4.337 9.438,5.798 12.203,3.264 2.764,-2.533 1.784,-8.103 -2.191,-12.439 -3.974,-4.337 -9.437,-5.798 -12.202,-3.265 m 71.414,24.497 c 15.443,6.923 118.226,28.757 118.226,28.757 L -1418.88,44.149 c 0,0 -10.65,5.752 4.793,12.675 m 782.532,341.211 c 144.472,0 272.803,-68.895 354.098,-175.57 -37.715,-7.116 -75.679,-27.189 -109.824,-59.017 -6.636,-6.19 -15.124,-12.245 -25.173,-18.009 -6.062,9.724 -29.896,45.682 -62.306,64.975 -20.375,12.124 -36.249,16.753 -47.669,18.111 -16.158,14.853 -51.71,39.938 -107.907,40.445 l -0.331,0.02 -2.21,-0.02 c -56.137,-0.534 -91.669,-25.598 -107.812,-40.445 -11.421,-1.358 -27.302,-5.987 -47.67,-18.111 -32.41,-19.293 -56.245,-55.244 -62.306,-64.975 -10.042,5.764 -18.53,11.819 -25.173,18.009 -34.141,31.825 -72.101,51.899 -109.815,59.018 81.295,106.674 209.627,175.569 354.098,175.569 m -734.548,-108.311 c -2.181,-3.779 -6.358,-5.451 -9.33,-3.735 -2.971,1.716 -3.612,6.169 -1.431,9.948 2.181,3.778 6.359,5.45 9.331,3.734 2.971,-1.716 3.612,-6.169 1.43,-9.947 M 87.692,277.031 c 0,0 6.657,18.906 10.384,19.97 3.729,1.066 8.255,-1.597 5.859,-8.787 C 101.538,281.025 87.692,275.7 87.692,275.7 Z M 462.76,-293.094 c -16.643,4.794 -82.371,16.425 -98.323,19.418 -30.596,5.739 -101.972,13.525 -107.07,16.41 22.177,17.998 42.539,36.468 63.824,53.95 20.719,17.018 39.676,35.702 56.5,56.358 6.3,7.735 5.056,11.735 -4.527,14.784 -12.412,3.948 -40.132,5.034 -87.079,-3.601 -46.415,-9.067 -73.526,-5.47 -124.644,-12.887 -4.124,-0.598 -8.136,-1.511 -11.379,-4.302 -1.175,-0.689 -1.127,-2.066 -1.334,-3.294 -0.811,-0.54 -1.341,-1.289 -1.707,-2.162 -0.104,-0.032 -0.169,-0.087 -0.288,-0.111 -0.262,-0.007 -0.5,-0.087 -0.748,-0.138 4.7,9.413 5.203,20.05 8.43,29.865 11.027,33.557 22.518,66.964 36.997,99.297 1.229,2.744 6.336,22.53 8.382,31.094 0.949,-0.312 1.813,-0.704 2.865,-0.914 15.977,-3.195 27.693,13.492 28.403,26.272 0.709,12.782 -1.776,23.787 -18.107,30.055 -16.332,6.267 -24.747,-5.224 -24.747,-5.224 l -50.156,21.987 c -20.8,2.975 -41.193,6.792 -41.193,6.792 l -86.252,23.028 112.17,-16.31 v 4.859 c 0,2.347 -7.81,20.445 -7.81,20.445 l -144.511,37.514 c -6.492,19.846 -13.939,39.258 -22.285,58.185 42.901,15.923 142.653,49.794 142.653,49.794 0,0 44.607,1.362 37.101,26.627 -7.506,25.266 -28.228,28.65 -38.352,13.651 -10.125,-15 -16.501,-21.106 -16.501,-21.106 0,0 -85.845,-28.967 -134.875,-47.455 -102.714,211.061 -319.242,356.522 -569.752,356.522 -250.51,0 -467.039,-145.462 -569.753,-356.525 -49.028,18.488 -134.883,47.458 -134.883,47.458 0,0 -6.375,6.106 -16.5,21.106 -10.124,14.999 -30.846,11.615 -38.353,-13.651 -7.506,-25.265 37.102,-26.627 37.102,-26.627 0,0 99.763,-33.875 142.661,-49.797 -8.346,-18.925 -15.791,-38.336 -22.283,-58.179 l -144.521,-37.517 c 0,0 -7.811,-18.098 -7.811,-20.445 v -4.859 l 112.17,16.31 -86.253,-23.028 c 0,0 -20.391,-3.817 -41.191,-6.792 l -50.156,-21.987 c 0,0 -8.416,11.491 -24.747,5.224 -16.332,-6.268 -18.817,-17.273 -18.107,-30.055 0.637,-11.473 10.148,-26.085 23.645,-26.644 -4.987,0.166 -9.976,0.323 -14.962,0.49 -24.67,0.828 -127.693,-1.246 -152.634,-6 -26.912,-5.13 -54.054,-9.524 -80.67,-16.055 -5.13,-1.258 -9.68,-8.228 -6.263,-11.128 5.01,-4.25 7.657,-10.493 15.382,-12.84 21.704,-6.595 43.928,-11.002 65.94,-16.087 16.945,-3.915 33.215,-9.119 50.855,-15.68 -9.17,-7.528 -18.234,-13.68 -26.941,-19.837 -28.487,-20.151 -56.13,-41.313 -84.168,-62.001 -17.58,-12.972 -37.04,-23.518 -52.812,-38.888 -3.469,-3.382 -6.46,-17.7 -6.674,-21.437 20.395,1.218 44.081,5.646 75.169,5.371 10.614,-0.094 68.013,-3.89 86.411,-6.686 13.513,-2.054 26.719,-5.261 39.842,-9.391 25.503,-8.028 49.509,-18.672 70.549,-34.852 4.941,-3.8 9.679,-5.566 15.554,-5.616 4.217,-1.03 6.243,-3.514 6.101,-7.798 -0.157,-4.742 -1.29,-74.406 3.172,-104.469 1.165,-7.848 7.126,-57.518 9.703,-74.447 1.838,-12.084 10.596,-22.845 6.102,-37.563 20.445,-11.392 74.653,-12.076 91.784,-8.957 18.483,3.365 37.464,4.203 56.323,5.528 25.001,1.758 49.91,4.58 74.826,7.199 15.967,1.678 31.962,3.358 47.786,5.881 14.609,2.33 28.979,5.912 43.507,8.714 5.851,1.129 18.677,3.338 34.124,5.936 115.924,-128.883 283.98,-209.938 470.974,-209.938 220.122,0 414.004,112.314 527.491,282.754 l 13.668,1.481 c 15.04,1.633 26.5,6.2 34.355,13.698 7.861,7.501 11.155,17.064 9.897,28.678 -0.274,2.531 -0.823,4.824 -1.611,6.907 28.911,3.198 57.739,6.988 86.364,12.222 9.856,1.802 19.664,4.928 29.879,5.029 -37.272,-25.343 -72.276,-53.846 -113.094,-74.252 -1.104,-0.551 0.904,-6.351 3.038,-8.199 3.056,-3.157 4.199,-8.645 10.672,-7.536 4.04,0.692 39.606,7.388 53.442,9.463 52.151,7.823 262.658,53.573 277.832,57.099 18.874,4.385 104.911,18.647 128.518,24.205 16.152,3.804 33.489,5.544 45.325,18.905 0.217,0.245 0.78,0.206 1.182,0.299 0.145,0.785 0.289,1.569 0.433,2.354 -3.843,5.144 -6.031,12.019 -13.076,14.049"
         fill="#f2f09e"
         id="path1677" />
      <path
         transform="matrix(1,0,0,-1,1565.1318,791.3357)"
         d="m 0,0 c -6.636,-6.19 -15.124,-12.245 -25.173,-18.009 -6.061,9.724 -29.895,45.682 -62.306,64.975 -20.375,12.124 -36.249,16.753 -47.668,18.111 -16.159,14.854 -51.711,39.938 -107.908,40.445 l -0.332,0.02 -2.209,-0.02 c -56.136,-0.534 -91.669,-25.598 -107.813,-40.445 -11.42,-1.358 -27.301,-5.987 -47.669,-18.111 -32.41,-19.293 -56.244,-55.244 -62.306,-64.975 -10.042,5.764 -18.53,11.819 -25.173,18.009 -34.141,31.825 -72.101,51.899 -109.815,59.018 81.295,106.674 209.627,175.569 354.099,175.569 144.471,0 272.802,-68.896 354.097,-175.569 C 72.109,51.901 34.146,31.828 0,0 m -244.273,422.861 c -349.751,0 -633.28,-283.529 -633.28,-633.279 0,-349.751 283.529,-633.28 633.28,-633.28 349.751,0 633.279,283.529 633.279,633.28 0,349.75 -283.528,633.279 -633.279,633.279"
         fill="#f5e02c"
         id="path1679" />
      <path
         transform="matrix(1,0,0,-1,862.4648,650.2942)"
         d="m 0,0 c 1.533,1.893 3.433,2.088 5.562,1.068 l 36.599,-17.3 c 1.223,-0.642 1.905,0.203 1.027,1.257 L 18.657,17.239 c -1.445,1.865 -1.641,3.764 -0.114,5.657 l 17.61,21.746 c 1.703,2.102 3.602,2.297 5.704,0.594 l 67.219,-54.44 c 2,-1.615 2.298,-3.602 0.595,-5.703 l -9.522,-11.759 c -1.622,-2 -3.703,-2.216 -5.704,-0.601 L 53.068,6.244 C 52.324,6.839 51.453,5.981 52.021,5.177 l 33.66,-44.128 c 1.439,-1.865 1.453,-3.785 -0.075,-5.677 l -5.622,-6.933 c -1.527,-1.892 -3.406,-2.277 -5.535,-1.257 l -50.162,23.753 c -0.899,0.385 -1.561,-0.648 -0.824,-1.243 L 64.847,-63.82 c 1.993,-1.615 2.304,-3.601 0.601,-5.703 L 55.92,-81.289 c -1.703,-2.101 -3.71,-2.209 -5.704,-0.601 l -67.219,54.44 c -2.108,1.71 -2.305,3.609 -0.601,5.711 z"
         fill="#2b0604"
         id="path1681" />
      <path
         transform="matrix(1,0,0,-1,974.1084,581.7434)"
         d="m 0,0 c -4.21,4.926 -7.041,6.785 -13.819,0.986 -6.778,-5.798 -5.393,-8.879 -1.183,-13.805 l 9.576,-11.198 c 1.669,-1.953 3.771,-2.115 5.717,-0.453 l 8.832,7.555 c 1.967,1.859 2.115,3.764 0.358,5.819 z m 54.9,-28.457 c 1.933,-2.257 1.96,-4.365 -0.094,-6.129 l -11.502,-9.832 c -1.96,-1.67 -3.967,-1.603 -5.724,0.452 l -7.636,8.934 c -1.757,2.054 -3.656,2.203 -5.711,0.446 l -8.838,-7.549 c -1.947,-1.669 -2.204,-3.662 -0.454,-5.717 l 7.651,-8.933 c 1.75,-2.055 1.601,-3.961 -0.446,-5.724 L 10.63,-72.342 c -1.952,-1.662 -4.136,-1.398 -6.062,0.865 l -37.234,43.554 c -11.063,12.941 -20.773,28.464 2.345,48.216 23.118,19.76 36.93,7.751 47.993,-5.189 z"
         fill="#2b0604"
         id="path1683" />
      <path
         transform="matrix(1,0,0,-1,1010.6279,514.7678)"
         d="m 0,0 c 1.959,1.189 3.724,1.156 5.656,-0.196 l 39.093,-28.909 c 1.095,-0.757 1.872,0.033 1.183,1.189 l -22.7,37.303 c -1.405,2.311 -0.831,4.237 1.366,5.574 l 12.927,7.867 c 2.312,1.405 4.176,0.952 5.576,-1.359 L 88.053,-52.44 c 1.331,-2.196 0.946,-4.169 -1.352,-5.575 L 69.719,-68.334 c -1.966,-1.203 -3.73,-1.163 -5.656,0.196 L 24.97,-39.235 c -1.102,0.756 -1.886,-0.034 -1.176,-1.19 l 22.679,-37.303 c 1.338,-2.195 0.959,-4.169 -1.352,-5.574 l -12.934,-7.866 c -2.197,-1.332 -4.238,-0.838 -5.569,1.358 l -44.952,73.909 c -1.412,2.311 -0.845,4.244 1.352,5.575 z"
         fill="#2b0604"
         id="path1685" />
      <path
         transform="matrix(1,0,0,-1,1128.3877,497.40065)"
         d="m 0,0 c -3.893,9.65 -6.906,15.286 -16.178,11.536 -9.278,-3.751 -7.521,-9.893 -3.615,-19.544 l 7.291,-18.043 c 3.906,-9.657 6.913,-15.293 16.191,-11.542 9.279,3.751 7.522,9.893 3.616,19.543 z m 31.552,-15.975 c 3.344,-8.272 10.562,-31.167 -19.145,-43.175 -29.707,-12.016 -40.431,9.461 -43.769,17.732 l -12.685,31.335 c -3.345,8.272 -10.556,31.167 19.151,43.176 C 4.805,45.108 15.536,23.632 18.881,15.36 Z"
         fill="#2b0604"
         id="path1687" />
      <path
         transform="matrix(1,0,0,-1,1210.1358,512.281)"
         d="m 0,0 c 6.325,1.46 9.326,2.852 7.894,9.049 -1.433,6.19 -4.542,6.44 -10.868,4.98 l -8.561,-1.98 c -2.5,-0.581 -3.643,-2.23 -3.034,-4.865 l 1.391,-6.062 c 0.615,-2.629 2.365,-3.616 4.88,-3.034 z m -8.677,32.694 c 6.325,1.46 9.313,2.98 7.42,11.15 -1.892,8.163 -5.237,8.224 -11.556,6.765 l -7.123,-1.642 c -2.493,-0.589 -3.641,-2.237 -3.027,-4.866 l 2.312,-10.015 c 0.608,-2.635 2.365,-3.615 4.865,-3.041 z M -20.165,72.781 C 4.603,78.504 16.401,70.686 21.396,49.082 22.436,44.601 23.132,35.6 19.098,28.43 25.085,27.173 30.552,21.503 32.438,13.333 36.215,-3 30.795,-12.583 6.028,-18.307 l -32.532,-7.521 c -2.5,-0.581 -4.291,0.534 -4.865,3.041 l -19.462,84.174 c -0.615,2.629 0.398,4.258 3.007,4.994 z"
         fill="#2b0604"
         id="path1689" />
      <path
         transform="matrix(1,0,0,-1,1276.044,449.63697)"
         d="m 0,0 c -2.426,-0.169 -4.055,-2.041 -3.886,-4.467 l 0.69,-9.988 c 0.169,-2.426 2.041,-4.054 4.467,-3.892 l 6.878,0.473 c 6.475,0.453 9.658,1.487 9.077,9.853 -0.575,8.359 -3.872,8.94 -10.34,8.494 z m 47.858,-60.934 c 2.136,-3.372 0.23,-7.298 -3.946,-7.589 l -15.381,-1.061 c -1.344,-0.095 -2.608,0.5 -3.23,1.676 L 9.4,-41.77 c -0.304,0.386 -0.723,0.629 -1.135,0.602 L 2.879,-41.54 c -2.433,-0.168 -4.062,-2.047 -3.893,-4.473 L 0.46,-67.327 c 0.169,-2.426 -1.46,-4.298 -3.893,-4.467 l -15.11,-1.047 c -2.433,-0.169 -4.305,1.459 -4.474,3.892 l -5.947,86.053 c -0.169,2.433 1.46,4.305 3.893,4.474 l 29.538,2.041 c 24.011,1.662 34.437,-7.921 35.965,-30.039 0.865,-12.542 -1.629,-21.523 -8.427,-27.145 -0.514,-0.446 -0.602,-1.129 -0.284,-1.785 z"
         fill="#2b0604"
         id="path1691" />
      <path
         transform="matrix(1,0,0,-1,1377.8692,460.50318)"
         d="m 0,0 c 0.636,6.46 0.007,9.778 -8.873,10.65 -8.872,0.872 -10.136,-2.264 -10.778,-8.717 l -1.433,-14.664 c -0.257,-2.555 1.088,-4.184 3.636,-4.434 l 11.576,-1.142 c 2.696,-0.128 4.176,1.088 4.446,3.778 z m 17.536,-59.306 c -0.29,-2.96 -1.797,-4.446 -4.479,-4.183 l -15.078,1.48 c -2.554,0.25 -3.899,1.743 -3.635,4.433 l 1.149,11.704 c 0.264,2.69 -0.946,4.164 -3.642,4.427 l -11.563,1.142 c -2.561,0.25 -4.17,-0.953 -4.434,-3.642 l -1.148,-11.705 c -0.27,-2.689 -1.75,-3.906 -4.433,-3.642 l -15.07,1.486 c -2.555,0.25 -3.879,2.007 -3.588,4.967 l 5.602,57.035 c 1.67,16.949 6.13,34.715 36.397,31.748 30.268,-2.973 31.187,-21.266 29.518,-38.215 z"
         fill="#2b0604"
         id="path1693" />
      <path
         transform="matrix(1,0,0,-1,1464.6729,477.43824)"
         d="m 0,0 c -2.751,0.115 -3.778,1.615 -3.528,4.338 0.392,5.61 -3.109,10.077 -9.279,11.583 -5.122,1.25 -9.007,-1 -9.216,-4.149 -0.657,-10.69 40.897,-20.543 33.531,-50.744 -0.959,-3.94 -11.089,-26.091 -42.209,-18.502 -27.571,6.724 -29.065,26.287 -27.22,36.681 0.44,2.398 1.981,3.554 4.474,3.5 l 15.631,-0.331 c 2.75,-0.115 3.905,-1.649 3.5,-4.474 -1.007,-6.426 2.946,-11.292 9.116,-12.792 6.433,-1.568 12.096,1.088 12.171,4.825 0.222,11.765 -39.898,18.908 -32.538,49.108 0.831,3.967 8.859,26.633 38.268,19.463 C 19.746,31.91 21.76,12.779 20.246,3.129 19.8,0.737 18.259,-0.419 15.772,-0.365 Z"
         fill="#2b0604"
         id="path1695" />
      <path
         transform="matrix(1,0,0,-1,1566.9102,526.37088)"
         d="m 0,0 c 5.777,-2.953 9.042,-3.71 12.854,3.75 3.81,7.461 1.29,9.657 -4.481,12.61 l -6.501,3.326 c -2.284,1.168 -4.224,0.641 -5.447,-1.765 L -8.251,8.778 C -9.427,6.494 -8.771,4.494 -6.487,3.325 Z M 18.232,37.424 C 39.647,26.477 43.635,12.9 33.545,-6.832 23.456,-26.564 10.116,-31.275 -11.299,-20.327 l -5.771,2.96 c -2.291,1.169 -4.224,0.642 -5.453,-1.764 l -9.847,-19.253 c -1.23,-2.406 -3.047,-2.993 -5.46,-1.757 l -13.468,6.886 c -2.284,1.17 -2.932,3.17 -1.764,5.454 l 39.31,76.876 c 1.236,2.405 3.055,2.993 5.521,1.885 z"
         fill="#2b0604"
         id="path1697" />
      <path
         transform="matrix(1,0,0,-1,1646.6104,565.8562)"
         d="m 0,0 c 3.798,5.251 4.934,8.434 -2.297,13.657 -7.231,5.218 -9.9,3.136 -13.698,-2.115 l -8.609,-11.94 c -1.507,-2.082 -1.169,-4.157 0.912,-5.664 l 9.414,-6.798 c 2.277,-1.473 4.155,-1.169 5.743,1.027 z m -14.685,-60.049 c -1.736,-2.412 -3.791,-2.94 -5.98,-1.358 l -12.259,8.859 c -2.081,1.5 -2.5,3.466 -0.912,5.656 l 6.88,9.529 c 1.581,2.189 1.27,4.074 -0.919,5.662 l -9.421,6.799 c -2.088,1.5 -4.074,1.277 -5.656,-0.919 l -6.879,-9.529 c -1.581,-2.189 -3.474,-2.493 -5.663,-0.912 l -12.273,8.86 c -2.081,1.5 -2.337,3.682 -0.594,6.095 l 33.525,46.446 c 9.975,13.806 22.753,26.903 47.405,9.109 24.646,-17.786 16.24,-34.052 6.279,-47.858 z"
         fill="#2b0604"
         id="path1699" />
      <path
         transform="matrix(1,0,0,-1,1706.457,604.6521)"
         d="m 0,0 c -1.729,1.716 -4.217,1.709 -5.927,-0.021 l -7.054,-7.095 c -1.71,-1.73 -1.704,-4.21 0.027,-5.926 l 4.892,-4.859 c 4.602,-4.576 7.481,-6.278 13.387,-0.331 5.9,5.946 4.17,8.805 -0.439,13.38 z m -14.252,-76.14 c -1.136,-3.824 -5.332,-4.986 -8.306,-2.033 l -10.933,10.852 c -0.967,0.953 -1.359,2.291 -0.886,3.535 l 9.171,29.193 c 0.095,0.473 -0.007,0.953 -0.291,1.237 l -3.838,3.811 c -1.73,1.716 -4.21,1.703 -5.927,-0.02 l -15.043,-15.164 c -1.716,-1.724 -4.196,-1.73 -5.932,-0.021 l -10.745,10.67 c -1.724,1.71 -1.738,4.197 -0.021,5.927 l 60.759,61.205 c 1.723,1.73 4.196,1.737 5.92,0.02 L 20.692,12.218 C 37.769,-4.73 37.444,-18.881 21.827,-34.613 12.968,-43.54 4.568,-47.582 -4.136,-46.183 c -0.669,0.095 -1.236,-0.29 -1.527,-0.959 z"
         fill="#2b0604"
         id="path1701" />
      <path
         transform="matrix(1,0,0,-1,1765.0801,687.6775)"
         d="m 0,0 c 5.23,3.838 7.285,6.521 2.007,13.718 -5.291,7.19 -8.46,6.034 -13.691,2.196 L -23.558,7.19 c -2.067,-1.514 -2.391,-3.595 -0.871,-5.663 l 6.872,-9.373 c 1.717,-2.102 3.603,-2.392 5.779,-0.791 z m -32.45,-52.656 c -2.4,-1.758 -4.508,-1.629 -6.103,0.554 l -8.961,12.197 c -1.52,2.068 -1.31,4.069 0.866,5.67 l 9.481,6.961 c 2.183,1.601 2.473,3.486 0.871,5.663 l -6.879,9.38 c -1.52,2.067 -3.487,2.473 -5.67,0.864 l -9.474,-6.953 c -2.183,-1.602 -4.068,-1.311 -5.669,0.871 l -8.968,12.198 c -1.514,2.075 -1.088,4.23 1.31,5.994 l 46.21,33.91 C -11.711,44.736 4.494,53.271 22.49,28.754 40.485,4.23 27.484,-8.664 13.752,-18.739 Z"
         fill="#2b0604"
         id="path1703" />
      <path
         transform="matrix(1,0,0,-1,1222.709,1468.5867)"
         d="m 0,0 h -13.063 v -18.279 h 13.32 c 3.041,0.52 4.96,2.784 5.744,6.791 C 5.568,-4.696 3.568,-0.872 0,0 m -34.873,-79.133 c -4.44,0.345 -6.356,4.176 -5.744,11.495 l 2.22,14.624 5.484,2.351 v 12.536 c -0.524,4.521 -2.872,8.353 -7.052,11.488 4.18,3.136 6.528,6.968 7.052,11.495 v 12.536 l -5.484,2.351 -2.088,14.361 c -0.7,7.312 1.216,11.143 5.744,11.495 H 2.217 C 10.664,25.335 16.529,22.442 19.841,16.915 23.152,11.38 24.72,5.751 24.544,0 v -9.4 c 0.176,-5.744 -1,-10.731 -3.527,-14.954 -2.528,-4.224 -5.609,-7.069 -9.272,-8.549 3.217,-2.528 7.663,-3.656 13.326,-3.399 -0.959,-4.616 -0.703,-9.055 0.784,-13.32 l 0.785,-1.041 5.473,-2.351 2.095,-14.624 c 0.689,-7.319 -1.217,-11.15 -5.744,-11.495 H 4.69 c -4.528,0.345 -6.433,4.176 -5.744,11.495 l 2.095,14.624 5.487,2.351 -12.542,15.665 h -7.049 v -15.665 l 5.481,-2.351 2.095,-14.624 c 0.689,-7.319 -1.223,-11.15 -5.747,-11.495 z"
         fill="#2b0604"
         id="path1705" />
      <path
         transform="matrix(1,0,0,-1,1292.4356,1442.988)"
         d="m 0,0 c 5.224,0.169 9.056,-1.919 11.495,-6.271 l 21.279,-52.494 21.288,52.494 c 2.439,4.352 6.271,6.44 11.495,6.271 h 18.799 c 4.529,-0.352 6.448,-4.183 5.751,-11.495 l -1.96,-14.36 -5.615,-2.352 v -12.799 c 0.521,-4.528 2.872,-8.271 7.048,-11.231 -4.176,-3.136 -6.527,-6.968 -7.048,-11.489 v -12.535 l 5.481,-2.352 2.222,-14.623 c 0.609,-7.319 -1.303,-11.151 -5.743,-11.495 H 60.59 c -4.528,0.344 -6.441,4.176 -5.744,11.495 l 2.088,14.623 5.487,2.352 v 17.232 c -1.135,3.399 -3.136,5.663 -6.008,6.792 2.872,1.047 4.873,3.399 6.008,7.055 v 16.191 l -19.591,-47.27 5.359,-2.352 2.48,-14.623 c 0.52,-7.319 -1.392,-11.151 -5.744,-11.495 H 20.631 c -4.352,0.344 -6.264,4.176 -5.744,11.495 l 2.48,14.623 5.36,2.352 -19.591,47.27 v -16.191 c 1.128,-3.656 3.135,-6.008 6.008,-7.055 -2.873,-1.129 -4.88,-3.393 -6.008,-6.792 v -17.232 l 5.487,-2.352 2.088,-14.623 c 0.696,-7.319 -1.224,-11.151 -5.751,-11.495 h -23.896 c -4.439,0.344 -6.351,4.176 -5.744,11.495 l 2.217,14.623 5.487,2.352 v 12.535 c -0.52,4.521 -2.872,8.353 -7.047,11.489 4.175,2.96 6.527,6.703 7.047,11.231 v 12.799 l -5.615,2.352 -1.96,14.36 C -25.247,-4.183 -23.328,-0.352 -18.8,0 Z"
         fill="#2b0604"
         id="path1707" />
      <path
         transform="matrix(1,0,0,-1,1421.3252,1547.7195)"
         d="m 0,0 c -6.527,0.264 -12.123,2.96 -16.779,8.096 -4.657,5.135 -6.859,16.103 -6.596,32.91 -0.52,4.521 -2.872,8.352 -7.055,11.488 4.183,3.135 6.535,6.967 7.055,11.495 -0.263,16.624 1.939,27.504 6.596,32.647 4.656,5.135 10.555,7.832 17.692,8.095 h 8.879 c 2.784,-0.087 4.744,-2.135 5.88,-6.136 0.169,3.738 1.959,5.785 5.351,6.136 h 11.496 c 4.52,-0.351 6.44,-4.183 5.744,-11.495 l -3.4,-27.159 C 34.519,63.989 33.735,62.854 32.519,62.678 H 18.151 c -1.222,0.176 -2.006,1.311 -2.351,3.399 -0.088,2.176 -0.568,4.724 -1.433,7.636 -0.872,2.92 -2.486,4.636 -4.832,5.163 H 2.217 C -0.128,78.349 -1.764,76.633 -2.676,73.713 -3.588,70.801 -4.048,67.557 -4.048,63.989 -3.264,59.549 -1,55.717 2.744,52.494 -1,49.271 -3.264,45.446 -4.048,41.006 c 0,-3.575 0.46,-6.812 1.372,-9.731 0.912,-2.92 2.548,-4.636 4.893,-5.156 h 7.318 c 2.346,0.52 3.981,2.216 4.893,5.088 0.919,2.879 1.372,5.359 1.372,7.447 0.345,2.088 1.129,3.217 2.351,3.392 h 14.624 c 1.223,-0.175 2,-1.263 2.352,-3.263 V 35.519 C 35.127,22.199 32.863,13.016 28.336,7.967 23.808,2.913 17.976,0.264 10.84,0 Z"
         fill="#2b0604"
         id="path1709" />
      <path
         transform="matrix(1,0,0,-1,423.4473,657.98269)"
         d="m 0,0 c 3.311,15.645 6.449,26.161 20.618,37.213 26.628,20.769 65.503,23.698 65.503,23.698 0,0 -31.154,-8.787 -53.52,-27.426 -43.164,-35.969 -9.853,-86.006 -20.503,-74.29 -2.348,2.582 -4.463,5.088 -6.334,7.424 C -1.757,-23.989 -2.491,-11.771 0,0 m 80.989,-90.672 c 66.085,-14.131 112.532,-5.168 146.401,11.536 1.706,0.842 3.245,1.752 4.76,2.672 l -55.347,25.485 c 0,0 -54.245,-7.456 -56.149,33.018 -1.904,40.473 35.848,43.503 36.497,44.113 0.65,0.61 17.753,-0.503 28.552,-15.651 10.799,-15.148 12.397,-19.04 12.397,-19.04 l 58.859,-23.506 c 0.833,8.959 0.725,17.792 1.336,25.514 1.823,23.017 0.516,52.475 -39.153,80.697 C 179.474,102.387 52.183,69.376 23.714,56.106 -4.755,42.837 -13.484,15.056 -13.484,15.056 -31.756,-53.642 14.904,-76.542 80.989,-90.672"
         fill="#2b0604"
         id="path1711" />
      <path
         transform="matrix(1,0,0,-1,1986.3174,614.64578)"
         d="M 0,0 C 12.781,18.639 31.42,31.953 47.396,32.485 63.373,33.018 69.611,22.268 52.899,22.545 20.77,23.077 -12.78,-18.639 0,0 m -25.017,-75.382 58.86,23.506 c 0,0 1.597,3.892 12.396,19.04 10.799,15.149 27.903,16.261 28.552,15.651 0.649,-0.61 38.401,-3.64 36.498,-44.113 -1.904,-40.473 -56.149,-33.018 -56.149,-33.018 l -55.348,-25.485 c 1.516,-0.92 3.055,-1.83 4.761,-2.672 33.869,-16.704 80.315,-25.667 146.4,-11.536 66.086,14.131 112.745,37.03 94.475,105.728 0,0 -8.731,27.781 -37.199,41.051 C 179.76,26.039 52.47,59.05 12.801,30.829 -26.867,2.607 -28.176,-26.851 -26.353,-49.868 c 0.612,-7.722 0.503,-16.555 1.336,-25.514"
         fill="#2b0604"
         id="path1713" />
      <path
         transform="matrix(1,0,0,-1,1842.9834,963.0476)"
         d="m 0,0 c -7.103,1.66 -187.192,-11.784 -187.192,-11.784 -5.529,0.337 -40.774,-3.641 -86.007,-9.219 -1.618,1.092 -3.188,2.011 -4.66,2.636 -11.063,4.694 -30.435,12.654 -30.435,12.654 v 18.201 c 0,0 -7.194,13.333 -12.024,15.621 -4.831,2.288 -8.111,10.057 -8.111,10.057 l 0.349,11.998 c 24.003,12.952 59.582,34.125 87.115,58.902 37.904,34.111 83.405,52.117 126.956,47.001 -1.862,-1.326 -3.285,-2.846 -4.118,-4.601 -6.665,-14.039 1.55,-36.296 25.124,-51.07 23.573,-14.773 35.027,-13.707 77.627,-13.99 15.242,-0.101 32.157,1.672 47.631,3.977 35.526,-14.814 108.53,-26.134 143.773,-36.309 34.534,-9.97 95.516,-22.046 111.956,-25.24 -4.31,-1.664 -8.719,-3.077 -13.385,-3.883 -14.923,-2.579 -30.12,-3.329 -45.013,-6.303 C 215.514,15.839 0,0 0,0 m -37.354,-10.114 0.092,0.024 0.05,-0.076 z m -0.01,-0.024 -0.01,0.019 0.019,-10e-4 z m -451.912,-39.238 c -9.816,-1.387 -16.249,-2.342 -18.064,-2.696 -1.556,-0.304 -3.713,-0.671 -6.273,-1.08 l -70.07,70.071 c -3.883,3.884 -3.883,10.174 0,14.058 3.883,3.882 10.174,3.882 14.057,0 z m 35.475,27.639 c 3.883,-3.884 3.883,-10.174 0,-14.057 -1.942,-1.942 -4.485,-2.913 -7.028,-2.913 -2.544,0 -5.088,0.971 -7.029,2.913 l -72.162,72.162 c -3.883,3.882 -3.883,10.174 0,14.057 3.883,3.883 10.173,3.883 14.057,0 z m 18.489,30.567 c -1.941,-1.942 -4.484,-2.913 -7.028,-2.913 -2.543,0 -5.087,0.971 -7.028,2.913 l -41.608,41.601 c -3.883,3.883 -3.883,10.174 0,14.057 3.883,3.883 10.174,3.883 14.057,0 l 41.607,-41.601 c 3.884,-3.884 3.884,-10.174 0,-14.057 m -169.702,-33.693 c -3.883,3.883 -3.883,10.174 0,14.057 3.883,3.883 10.173,3.883 14.057,0 l 46.728,-46.726 c -7.792,-1.053 -16.209,-2.168 -24.82,-3.295 z m -75.538,24.319 c 0,86.494 70.116,156.611 156.612,156.611 0.5,0 0.995,-0.021 1.491,-0.037 v -0.016 c 0.106,0.002 0.213,0.005 0.319,0.008 0.107,-0.003 0.213,-0.006 0.32,-0.008 v 0.016 c 0.497,0.016 0.992,0.037 1.492,0.037 86.494,0 156.61,-70.117 156.61,-156.611 0,-11.116 -1.176,-21.955 -3.378,-32.416 -13.135,-1.714 -26.084,-3.417 -38.5,-5.062 3.743,11.828 5.787,24.411 5.787,37.478 0,68.561 -55.58,124.142 -124.141,124.142 -68.562,0 -124.142,-55.581 -124.142,-124.142 0,-25.08 7.496,-48.381 20.285,-67.901 -10.986,-1.438 -19.365,-2.566 -22.967,-3.146 -2.179,-0.35 -6.287,-0.988 -11.792,-1.834 -11.472,21.773 -17.996,46.56 -17.996,72.881 m -2.092,165.928 c 11.183,11.893 24.852,20.769 24.852,20.769 0,0 -15.976,-16.686 -26.805,-34.26 -11.957,-19.406 -11.006,-37.278 -11.006,-37.278 l -11.005,8.983 -3.454,6.777 c 0,0 14.196,20.947 27.418,35.009 m 73.31,34.017 c 5.222,6.153 20.772,22.437 44.649,29.977 25.296,7.988 42.555,5.592 42.555,5.592 0,0 -31.774,-2.664 -57.732,-24.32 -9.215,-7.687 -15.882,-15.187 -18.72,-18.559 -0.971,-1.154 -1.387,-2.654 -1.143,-4.142 l 5.217,-31.882 -15.623,38.104 c -0.726,1.774 -0.443,3.769 0.797,5.23 m 435.306,-10.565 c 31.974,9.176 40.592,8.62 40.592,1.391 0,-7.507 -28.081,-2.225 -56.717,-14.458 -21.321,-9.107 -57.275,-35.866 -57.275,-35.866 0,0 41.426,39.759 73.4,48.933 M -1309.45,52.413 c 0,0 -10.651,5.752 4.793,12.675 15.443,6.923 118.225,28.757 118.225,28.757 z m -54.419,-8.557 c -3.975,-4.336 -9.438,-5.798 -12.202,-3.265 -2.765,2.534 -1.784,8.103 2.19,12.44 3.975,4.336 9.438,5.798 12.202,3.264 2.765,-2.533 1.784,-8.103 -2.19,-12.439 m 107.196,254.132 c -2.181,-3.779 -6.358,-5.45 -9.33,-3.735 -2.972,1.716 -3.613,6.169 -1.432,9.948 2.182,3.778 6.36,5.45 9.331,3.735 2.972,-1.717 3.613,-6.17 1.431,-9.948 M 197.121,285.295 c 0,0 6.657,18.906 10.385,19.971 3.727,1.065 8.255,-1.598 5.858,-8.787 -2.396,-7.19 -16.243,-12.515 -16.243,-12.515 z M 572.188,-284.83 c -16.641,4.794 -82.37,16.425 -98.322,19.417 -30.595,5.74 -101.971,13.526 -107.069,16.412 22.176,17.997 42.539,36.467 63.823,53.949 20.72,17.018 39.677,35.702 56.5,56.359 6.3,7.735 5.057,11.735 -4.527,14.783 -12.411,3.948 -40.132,5.034 -87.078,-3.601 -46.416,-9.067 -73.527,-5.47 -124.644,-12.887 -4.124,-0.599 -8.137,-1.511 -11.379,-4.302 -1.176,-0.689 -1.128,-2.066 -1.335,-3.294 -0.81,-0.54 -1.341,-1.289 -1.707,-2.162 -0.103,-0.032 -0.169,-0.087 -0.287,-0.111 -0.264,-0.006 -0.501,-0.087 -0.748,-0.138 4.698,9.413 5.203,20.051 8.43,29.865 11.027,33.557 22.517,66.964 36.997,99.297 1.228,2.744 6.335,22.53 8.381,31.095 0.95,-0.312 1.813,-0.705 2.865,-0.915 15.976,-3.195 27.693,13.492 28.402,26.272 0.711,12.782 -1.774,23.788 -18.105,30.055 -16.332,6.267 -24.747,-5.224 -24.747,-5.224 l -50.157,21.987 c -20.8,2.975 -41.192,6.792 -41.192,6.792 l -86.252,23.028 112.169,-16.31 v 4.859 c 0,2.347 -7.81,20.445 -7.81,20.445 L 53.981,165.08 c 0,0 -10.057,-3.544 -15.918,13.508 -1.823,5.302 -6.537,12.632 -12.621,19.984 6.556,5.868 14.782,11.371 25.178,15.344 37.748,14.428 149.634,52.418 149.634,52.418 0,0 44.606,1.362 37.1,26.627 -7.505,25.266 -28.227,28.65 -38.352,13.651 -10.124,-15 -16.5,-21.106 -16.5,-21.106 0,0 -140.06,-47.259 -164.557,-59.577 -4.108,-2.066 -8.007,-5.071 -11.687,-8.561 -9.474,7.339 -18.905,11.672 -25.027,8.561 -12.871,-6.54 -16.656,-36.914 -17.524,-46.211 -21.69,8.535 -47.048,16.865 -72.619,23.016 -56.316,13.544 -111.344,-15.174 -150.066,-51.268 -18.769,-17.494 -44.693,-30.413 -67.302,-39.294 l 0.734,25.305 c 0,0 -23.384,39.221 -53.941,57.412 -30.557,18.191 -45.277,14.331 -45.277,14.331 0,0 -30.907,40.009 -97.046,40.344 v 0.024 c -0.11,0 -0.21,-0.011 -0.32,-0.011 -0.109,0 -0.209,0.011 -0.319,0.011 v -0.024 c -66.139,-0.335 -97.047,-40.344 -97.047,-40.344 0,0 -14.72,3.86 -45.276,-14.331 -30.557,-18.191 -53.941,-57.412 -53.941,-57.412 l 0.734,-25.305 c -22.609,8.881 -48.534,21.8 -67.302,39.294 -38.723,36.094 -93.751,64.812 -150.067,51.268 -25.571,-6.151 -50.928,-14.481 -72.618,-23.016 -0.869,9.297 -4.654,39.671 -17.525,46.211 -6.121,3.111 -15.553,-1.222 -25.027,-8.561 -3.68,3.49 -7.579,6.495 -11.687,8.561 -24.497,12.318 -164.557,59.577 -164.557,59.577 0,0 -6.375,6.106 -16.5,21.106 -10.124,14.999 -30.846,11.615 -38.352,-13.651 -7.506,-25.265 37.1,-26.627 37.1,-26.627 0,0 111.887,-37.99 149.634,-52.418 10.397,-3.973 18.622,-9.476 25.179,-15.344 -6.084,-7.352 -10.798,-14.682 -12.621,-19.984 -5.862,-17.052 -15.918,-13.508 -15.918,-13.508 l -170.415,-44.239 c 0,0 -7.811,-18.098 -7.811,-20.445 v -4.859 l 112.17,16.31 -86.253,-23.028 c 0,0 -20.391,-3.817 -41.191,-6.792 l -50.156,-21.987 c 0,0 -8.417,11.491 -24.748,5.224 -16.332,-6.267 -18.817,-17.273 -18.106,-30.055 0.71,-12.78 12.426,-29.467 28.402,-26.272 15.976,3.195 19.882,19.083 19.882,19.083 0,0 76.01,14.457 116.178,26.054 35.243,10.175 108.247,21.495 143.774,36.309 15.473,-2.305 32.388,-4.078 47.63,-3.977 42.6,0.283 54.054,-0.783 77.628,13.99 23.573,14.774 31.788,37.031 25.123,51.07 -0.832,1.755 -2.256,3.275 -4.117,4.601 43.55,5.116 89.052,-12.89 126.956,-47.001 27.533,-24.777 63.111,-45.95 87.114,-58.902 l 0.349,-11.998 c 0,0 -3.279,-7.769 -8.109,-10.057 -4.831,-2.288 -12.026,-15.621 -12.026,-15.621 V -5.713 c 0,0 -19.372,-7.96 -30.434,-12.654 -11.063,-4.693 -27.256,-24.345 -33.326,-32.93 -6.07,-8.585 -2.978,-23.189 -3.006,-34.563 -0.007,-2.917 0.928,-5.9 2.305,-8.732 -45.695,-7.119 -86.453,-13.66 -96.266,-15.876 -40.612,-6.547 -80.265,-16.837 -121.099,-22.2 -26.882,-3.531 -125.452,-17.112 -147.535,-21.624 -7.102,-1.45 -53.685,-9.218 -70.472,-14.618 -15.122,-4.863 -30.577,-5.885 -46.344,-1.75 -4.748,1.245 -49.032,4.553 -65.302,11.341 -6.115,2.551 -12.146,7.391 -19.517,4.784 l 10e-4,0.015 c 3.938,8.773 10.015,15.885 16.675,22.993 21.029,22.445 45.204,39.006 69.867,57.27 26.884,15.889 36.894,45.175 34.669,49.624 -2.734,5.468 -39.202,21.964 -52.672,25.895 -7.013,2.464 -14.185,4.63 -22.039,5.251 -18.492,1.464 -37.063,1.92 -55.606,2.542 -24.67,0.827 -127.694,-1.245 -152.634,-6 -26.912,-5.13 -54.054,-9.524 -80.67,-16.055 -5.13,-1.258 -9.681,-8.229 -6.264,-11.128 5.011,-4.249 7.657,-10.493 15.383,-12.84 21.704,-6.595 43.928,-11.002 65.939,-16.087 16.946,-3.915 33.214,-9.119 50.856,-15.679 -9.17,-7.529 -18.234,-13.681 -26.941,-19.838 -28.488,-20.151 -56.13,-41.313 -84.168,-62.001 -17.58,-12.972 -37.04,-23.518 -52.812,-38.887 -3.471,-3.383 -6.461,-17.701 -6.675,-21.438 20.396,1.218 44.081,5.647 75.168,5.371 10.615,-0.094 68.015,-3.89 86.412,-6.686 13.514,-2.055 26.72,-5.261 39.843,-9.391 25.503,-8.027 49.509,-18.672 70.549,-34.853 4.94,-3.799 9.678,-5.565 15.553,-5.615 h 10e-4 c 4.216,-1.03 6.243,-3.514 6.1,-7.798 -0.157,-4.742 -1.29,-74.406 3.173,-104.468 1.165,-7.849 7.126,-57.518 9.702,-74.448 1.839,-12.084 10.597,-22.845 6.103,-37.563 20.445,-11.392 74.653,-12.076 91.784,-8.957 18.482,3.365 37.464,4.203 56.321,5.529 25.002,1.756 49.911,4.579 74.827,7.198 15.968,1.678 31.961,3.358 47.787,5.881 14.609,2.33 28.979,5.912 43.506,8.715 20.959,4.044 131.38,21.941 131.38,21.941 2.993,2.82 74.247,11.56 94.646,13.77 31.409,3.403 139.93,16.472 164.208,19.455 17.924,2.201 36.052,3.216 53.735,7.027 11.654,2.511 127.239,13.001 130.613,13.175 52.086,2.691 103.618,10.14 155.051,17.827 7.489,1.12 104.801,13.846 146.358,15.53 31.655,1.284 148.087,14.27 157.075,15.132 47.596,4.568 95.169,9.282 142.196,17.88 9.857,1.802 19.665,4.928 29.879,5.029 -37.271,-25.343 -72.275,-53.846 -113.095,-74.252 -1.102,-0.551 0.906,-6.351 3.039,-8.199 3.057,-3.157 4.2,-8.644 10.672,-7.536 4.04,0.692 39.606,7.388 53.442,9.463 52.152,7.823 262.659,53.574 277.832,57.099 18.875,4.385 104.911,18.646 128.518,24.205 16.153,3.804 33.488,5.544 45.325,18.905 0.218,0.245 0.781,0.206 1.183,0.299 0.144,0.785 0.288,1.569 0.433,2.354 -3.843,5.144 -6.032,12.019 -13.078,14.049"
         fill="#2b0604"
         id="path1715" />
      <path
         transform="matrix(1,0,0,-1,1262.416,1048.9758)"
         d="m 0,0 c -1.344,12.378 -8.436,19.789 -20.999,22.473 0.46,-1.651 0.877,-3.339 1.08,-5.212 1.382,-12.763 -2.203,-23.268 -10.748,-31.514 -8.552,-8.258 -21.111,-13.276 -37.678,-15.072 l -33.146,-3.592 -143.623,-315.048 c -12.152,-26.573 -28.227,-40.928 -48.226,-43.102 -7.569,-0.821 -14.238,-0.221 -20.062,1.71 8.066,-14.625 21.369,-20.985 39.985,-18.967 19.998,2.174 36.073,16.53 48.226,43.102 l 143.622,315.044 33.143,3.593 c 16.567,1.796 29.125,6.814 37.678,15.071 C -2.204,-23.267 1.382,-12.763 0,0"
         fill="#a6982d"
         id="path1717" />
      <path
         transform="matrix(1,0,0,-1,956.3428,1113.324)"
         d="m 0,0 c 4.64,-17.039 8.865,-43.077 12.664,-78.122 l 12.269,-113.149 14.55,32.283 -6.896,63.606 c -3.8,35.044 -8.025,61.083 -12.665,78.121 C 15.282,-0.233 8.891,12.952 0.749,22.282 -5.13,28.985 -11.701,34.535 -18.854,39.116 -10.873,29.81 -4.575,16.792 0,0"
         fill="#a6982d"
         id="path1719" />
      <path
         transform="matrix(1,0,0,-1,841.9727,1115.6072)"
         d="m 0,0 c -15.813,-1.717 -30.401,-11.538 -43.775,-29.464 -13.381,-17.929 -19.152,-35.368 -17.316,-52.32 1.51,-13.911 7.044,-24.532 16.611,-31.874 3.005,-2.308 6.282,-4.124 9.773,-5.552 -3.371,5.729 -5.616,12.376 -6.461,20.166 -1.837,16.952 3.934,34.39 17.314,52.32 13.375,17.926 27.962,27.747 43.776,29.463 7.244,0.785 13.556,0.309 19.045,-1.281 -0.745,1.5 -1.5,2.931 -2.286,4.161 C 29.376,-2.938 17.145,1.858 0,0"
         fill="#a6982d"
         id="path1721" />
      <path
         transform="matrix(1,0,0,-1,903.8096,1263.7136)"
         d="m 0,0 c -3.616,5.573 -9.167,9.142 -16.76,10.591 0.716,-2.288 1.279,-4.737 1.574,-7.46 1.385,-12.763 -3.992,-24.086 -16.119,-33.972 -12.127,-9.894 -28.096,-15.909 -47.905,-18.057 -27.072,-2.935 -50.765,2.439 -71.117,16.028 3.214,-3.536 6.592,-6.953 10.332,-10.105 22.373,-18.868 49.276,-26.591 80.707,-23.184 19.809,2.149 35.779,8.163 47.906,18.057 7.811,6.368 12.78,13.341 14.987,20.902 z"
         fill="#a6982d"
         id="path1723" />
      <path
         transform="matrix(1,0,0,-1,1320.2442,1116.9421)"
         d="m 0,0 c 1.2,-11.046 -1.643,-20.846 -8.522,-29.397 -6.88,-8.545 -15.839,-13.425 -26.886,-14.622 -6.922,-0.749 -13.298,0.277 -19.24,2.698 2.414,-4.289 5.638,-8.119 9.764,-11.438 8.545,-6.873 18.348,-9.717 29.395,-8.52 11.047,1.196 20.006,6.076 26.885,14.621 6.879,8.552 9.723,18.351 8.523,29.398 C 18.72,-6.214 13.847,2.75 5.295,9.629 2.103,12.196 -1.321,14.011 -4.86,15.453 -2.271,10.852 -0.62,5.718 0,0"
         fill="#a6982d"
         id="path1725" />
      <path
         transform="matrix(1,0,0,-1,1356.3008,1368.3313)"
         d="m 0,0 c -1.304,12.015 -8.291,19.015 -20.728,21.205 0.309,-1.28 0.655,-2.528 0.809,-3.945 1.258,-11.621 -2,-21.136 -9.774,-28.518 -7.774,-7.399 -19.279,-11.929 -34.514,-13.58 l -45.43,-4.927 c -13.937,-1.511 -25.527,-0.226 -35.034,3.536 2.913,-6.147 7.654,-11.088 14.265,-14.794 10.355,-5.817 23.919,-7.817 40.688,-5.999 l 45.43,4.923 c 15.235,1.65 26.739,6.181 34.514,13.581 C -2,-21.137 1.258,-11.621 0,0"
         fill="#a6982d"
         id="path1727" />
      <path
         transform="matrix(1,0,0,-1,1315.1465,1244.7332)"
         d="m 0,0 c 3.782,13.123 5.338,22.733 4.676,28.834 -0.8,7.426 -4.4,13.487 -10.784,18.196 -3.3,2.427 -6.823,4.081 -10.551,5.024 0.677,-1.886 1.19,-3.853 1.417,-5.959 0.662,-6.101 -0.895,-15.711 -4.676,-28.834 l -29.89,-105.582 25.591,2.776 z"
         fill="#a6982d"
         id="path1729" />
      <path
         transform="matrix(1,0,0,-1,1611.582,1317.2483)"
         d="m 0,0 c 0.305,-1.268 0.65,-2.5 0.803,-3.901 1.258,-11.621 -2.044,-21.137 -9.913,-28.533 -7.869,-7.406 -19.336,-11.933 -34.375,-13.562 l -38.573,-4.182 c -14.864,-1.611 -26.376,3.305 -34.557,14.756 -10.872,-13.516 -23.256,-21.025 -37.161,-22.534 l -36.288,-3.934 c -15.444,-1.673 -29.023,0.811 -40.783,7.351 2.344,-2.986 4.844,-5.827 7.636,-8.394 14.239,-13.098 31.925,-18.508 53.065,-16.217 l 36.289,3.934 c 13.904,1.509 26.289,9.018 37.161,22.533 8.18,-11.45 19.693,-16.366 34.557,-14.755 l 38.573,4.181 c 15.038,1.629 26.506,6.156 34.375,13.563 7.869,7.396 11.17,16.911 9.912,28.532 C 19.422,-9.196 12.435,-2.212 0,0"
         fill="#a6982d"
         id="path1731" />
      <path
         transform="matrix(1,0,0,-1,1430.5029,1316.1428)"
         d="m 0,0 c -0.433,1.785 -0.77,3.698 -0.993,5.76 -2.087,19.228 2.407,37.834 13.461,55.8 11.068,17.962 24.019,27.747 38.877,29.357 2.701,0.293 5.219,0.191 7.647,-0.107 -0.724,5.495 -3.623,9.964 -8.767,13.336 -5.294,3.479 -11.555,4.818 -18.799,4.032 C 16.569,106.567 3.617,96.783 -7.451,78.82 -18.505,60.854 -22.999,42.249 -20.912,23.021 -19.31,8.251 -12.335,0.595 0,0"
         fill="#a6982d"
         id="path1733" />
      <path
         transform="matrix(1,0,0,-1,1647.6621,1002.8626)"
         d="m 0,0 c -0.822,7.622 -4.378,13.73 -10.661,18.355 -3.286,2.415 -6.847,4.033 -10.653,4.942 0.662,-1.903 1.165,-3.895 1.395,-6.036 0.641,-5.913 -0.065,-12.73 -2.109,-20.464 l -2.596,-8.087 -82.271,-289.038 25.624,2.78 76.566,268.997 2.596,8.087 C -0.065,-12.73 0.64,-5.912 0,0"
         fill="#a6982d"
         id="path1735" />
      <path
         transform="matrix(1,0,0,-1,1851.1172,1139.4495)"
         d="M 0,0 C 0.574,-5.338 -0.255,-11.886 -2.495,-19.642 L -4.8,-27.7 l -30.122,-106.177 25.604,2.777 24.437,86.14 2.305,8.058 c 2.24,7.755 3.069,14.304 2.494,19.642 C 19.067,-9.458 15.548,-3.196 9.352,1.535 6.021,4.068 2.354,5.727 -1.602,6.64 -0.849,4.553 -0.259,2.372 0,0"
         fill="#a6982d"
         id="path1737" />
      <path
         transform="matrix(1,0,0,-1,1906.2695,1308.4231)"
         d="m 0,0 c -1.288,11.877 -8.256,18.794 -20.679,20.951 0.283,-1.205 0.617,-2.365 0.76,-3.69 1.258,-11.614 -2.036,-21.177 -9.897,-28.678 -7.854,-7.498 -19.315,-12.065 -34.354,-13.697 l -36.58,-3.964 c -16.377,-1.778 -28.216,3.392 -35.495,15.523 -12.908,-14.319 -26.027,-22.195 -39.358,-23.642 l -32.572,-3.531 c -15.181,-1.646 -28.633,0.922 -40.411,7.582 2.225,-2.79 4.573,-5.468 7.185,-7.913 14.478,-13.559 32.186,-19.202 53.145,-16.93 l 32.571,3.531 c 13.331,1.447 26.451,9.323 39.358,23.642 7.28,-12.13 19.119,-17.301 35.496,-15.522 l 36.579,3.963 c 15.039,1.632 26.5,6.199 34.355,13.697 C -2.036,-21.177 1.258,-11.614 0,0"
         fill="#a6982d"
         id="path1739" />
      <path
         transform="matrix(1,0,0,-1,1707.6309,1286.1243)"
         d="m 0,0 c -0.87,2.913 -1.584,6.072 -1.98,9.725 -1.876,17.329 2.879,34.804 14.267,52.418 11.389,17.613 24.028,27.176 37.933,28.681 2.772,0.301 5.385,0.199 7.913,-0.122 -0.022,0.338 -0.002,0.714 -0.037,1.039 -0.561,5.141 -3.571,9.341 -9.033,12.602 -5.461,3.265 -11.715,4.506 -18.762,3.742 C 16.396,106.58 3.758,97.017 -7.631,79.403 -19.02,61.79 -23.775,44.315 -21.898,26.985 -20.006,9.548 -12.688,0.59 0,0"
         fill="#a6982d"
         id="path1741" />
      <path
         transform="matrix(1,0,0,-1,1160.9248,1081.8933)"
         d="m 0,0 -143.623,-315.047 c -12.151,-26.573 -28.227,-40.929 -48.226,-43.103 -28.386,-3.076 -44.502,13.192 -48.363,48.818 l -25.424,191.787 c -3.778,34.856 -9.323,58.007 -16.635,69.45 -7.305,11.443 -19.537,16.239 -36.681,14.381 -15.814,-1.716 -30.402,-11.537 -43.776,-29.464 -13.38,-17.929 -19.151,-35.368 -17.315,-52.32 1.51,-13.911 7.044,-24.532 16.61,-31.874 9.567,-7.345 21.587,-10.235 36.067,-8.665 3.425,0.371 6.843,0.837 10.254,1.397 3.977,0.625 6.348,0.985 7.112,1.065 23.046,2.502 35.612,-5.88 37.699,-25.114 1.385,-12.763 -3.993,-24.086 -16.119,-33.973 -12.126,-9.894 -28.097,-15.908 -47.905,-18.057 -31.431,-3.406 -58.335,4.317 -80.708,23.184 -22.38,18.865 -35.335,44.597 -38.866,77.169 -4.254,39.234 7.977,76.17 36.696,110.782 28.718,34.626 63.366,54.138 103.937,58.534 39.235,4.254 69.742,-6.018 91.511,-30.838 8.141,-9.33 14.533,-22.515 19.173,-39.543 4.64,-17.039 8.865,-43.077 12.664,-78.122 l 12.269,-113.148 113.013,250.739 5.811,13.065 c 3.869,8.697 8.414,14.791 13.632,18.246 5.214,3.45 13.439,5.792 24.678,7.01 l 11.113,1.491 50.279,5.454 C 65.355,76.173 79.587,68.468 81.572,50.178 82.954,37.416 79.369,26.911 70.824,18.664 62.272,10.406 49.713,5.389 33.146,3.592 Z"
         fill="#f5e02c"
         id="path1743" />
      <path
         transform="matrix(1,0,0,-1,1276.2256,1081.5335)"
         d="m 0,0 c 11.039,1.196 20.843,-1.64 29.395,-8.52 8.551,-6.879 13.424,-15.842 14.625,-26.889 1.199,-11.046 -1.644,-20.845 -8.524,-29.398 -6.88,-8.544 -15.839,-13.424 -26.886,-14.62 -11.046,-1.197 -20.849,1.647 -29.394,8.519 -8.552,6.88 -13.424,15.843 -14.624,26.889 -1.2,11.047 1.643,20.846 8.523,29.398 C -20.013,-6.069 -11.054,-1.196 0,0 m -10.886,-251.521 32.282,3.502 c 23.998,2.603 36.92,-4.567 38.76,-21.519 1.258,-11.621 -2,-21.136 -9.774,-28.518 -7.774,-7.399 -19.278,-11.93 -34.514,-13.581 l -45.43,-4.926 c -16.769,-1.818 -30.332,0.185 -40.687,5.999 -10.363,5.814 -16.181,14.625 -17.461,26.435 -0.684,6.283 0.451,14.501 3.389,24.649 l 34.572,121.119 2.276,8.33 c 6.421,22.478 19.359,34.768 38.783,36.874 8,0.869 15.192,-1.051 21.584,-5.753 6.385,-4.708 9.985,-10.77 10.785,-18.194 0.662,-6.102 -0.895,-15.712 -4.676,-28.835 z"
         fill="#f5e02c"
         id="path1745" />
      <path
         transform="matrix(1,0,0,-1,1436.3526,1315.9534)"
         d="M 0,0 10.857,1.178 C 23.999,2.604 32.1,8.777 35.147,19.711 l 15.701,55.178 c 1.964,6.763 2.763,11.865 2.392,15.29 -0.618,5.709 -3.578,10.312 -8.864,13.777 -5.295,3.48 -11.556,4.818 -18.799,4.033 C 10.72,106.378 -2.232,96.593 -13.301,78.631 -24.354,60.665 -28.849,42.059 -26.762,22.831 -24.922,5.865 -16.006,-1.734 0,0 m 104.415,12.763 32.572,3.534 c 24.188,2.621 37.205,-4.542 39.045,-21.493 1.258,-11.621 -2.044,-21.137 -9.912,-28.533 -7.869,-7.406 -19.337,-11.934 -34.376,-13.563 L 93.172,-51.473 C 78.308,-53.083 66.796,-48.167 58.614,-36.718 47.742,-50.233 35.358,-57.742 21.453,-59.25 l -36.288,-3.935 c -21.141,-2.291 -38.826,3.12 -53.065,16.217 -14.24,13.097 -22.654,31.66 -25.257,55.651 -3.985,36.768 4.953,71.173 26.82,103.218 21.867,32.049 48.419,49.771 79.66,53.157 23.046,2.498 42.324,-3.789 57.836,-18.875 l 46.768,163.192 c 7.97,27.845 21.664,42.818 41.095,44.924 8.189,0.887 15.424,-0.975 21.707,-5.592 6.284,-4.625 9.84,-10.734 10.662,-18.355 0.639,-5.913 -0.066,-12.73 -2.109,-20.465 l -2.596,-8.086 z"
         fill="#f5e02c"
         id="path1747" />
      <path
         transform="matrix(1,0,0,-1,1712.6397,1285.9959)"
         d="m 0,0 7.148,0.775 c 15.614,1.69 25.3,9.195 29.067,22.515 l 14.632,51.6 c 1.97,6.759 2.713,12.33 2.24,16.722 -0.561,5.141 -3.571,9.341 -9.032,12.603 -5.462,3.265 -11.716,4.505 -18.763,3.742 C 11.388,106.451 -1.251,96.888 -12.64,79.275 -24.028,61.662 -28.784,44.186 -26.907,26.856 -24.777,7.229 -15.811,-1.716 0,0 m 103.556,12.668 31.43,3.411 c 24.006,2.6 36.907,-4.483 38.725,-21.246 1.258,-11.613 -2.036,-21.176 -9.898,-28.678 -7.853,-7.497 -19.314,-12.064 -34.353,-13.697 L 92.88,-51.505 C 76.503,-53.283 64.664,-48.113 57.385,-35.983 44.477,-50.302 31.357,-58.178 18.027,-59.625 l -32.572,-3.53 c -20.959,-2.273 -38.666,3.37 -53.145,16.929 -14.479,13.559 -23.032,32.431 -25.65,56.625 -3.971,36.573 5.106,70.658 27.213,102.251 22.107,31.591 49.065,49.114 80.882,52.56 24.376,2.647 43.102,-3.898 56.185,-19.634 7.97,15.322 19.679,23.816 35.103,25.489 8.378,0.909 15.664,-1.004 21.867,-5.724 6.196,-4.73 9.716,-10.991 10.568,-18.795 0.574,-5.338 -0.255,-11.886 -2.496,-19.642 l -2.304,-8.057 z"
         fill="#f5e02c"
         id="path1749" />
      <path
         transform="matrix(1,0,0,-1,2584.1795,1484.6976)"
         d="m 0,0 v 0 21.809 h -0.202 v 104.498 c 0.067,-0.008 0.135,-0.014 0.202,-0.022 V 0"
         fill="#f5e02c"
         id="path1805" />
    </g>
  </g>
</svg>
